<svg xmlns="http://www.w3.org/2000/svg" version="1.1" viewBox="14.506649600000001 27.8186496 225.792 206.336" style="max-height: 500px" width="225.792" height="206.336">
<path transform="translate(0,0)" fill="#FEFEFE" d="M0 0 C84.48 0 168.96 0 256 0 C256 84.48 256 168.96 256 256 C171.52 256 87.04 256 0 256 C0 171.52 0 87.04 0 0 Z"/>
<path transform="translate(158,85)" fill="#129D59" d="M0 0 C3.93898287 1.59839626 7.41801653 3.78776144 11 6.0625 C13.10200948 7.34515239 15.20490765 8.6263493 17.30859375 9.90625 C18.39640137 10.5765625 19.48420898 11.246875 20.60498047 11.9375 C24.07338609 14.0445826 27.5728967 16.08311458 31.09765625 18.09375 C31.68195404 18.42733017 32.26625183 18.76091034 32.86825562 19.104599 C35.69661218 20.71739824 38.52701442 22.32659448 41.35742188 23.93579102 C57.60437329 33.25486918 57.60437329 33.25486918 59 38 C59.70857092 42.99295322 59.55152691 46.91664358 57.25 51.4375 C54.63193284 54.4191876 52.60804958 56.63185986 48.66455078 57.53466797 C39.99156413 57.81054501 34.17928514 54.5008967 26.875 50.125 C25.68152402 49.43219856 24.48684824 48.74146009 23.29101562 48.05273438 C20.92899084 46.68694428 18.57549044 45.30817598 16.22949219 43.91503906 C13.44732127 42.26525461 10.65451622 40.63753278 7.8515625 39.0234375 C3.87453173 36.72521408 -0.07030503 34.37809359 -4 32 C-5.11117187 31.33226563 -6.22234375 30.66453125 -7.3671875 29.9765625 C-16.98039216 24.05882353 -16.98039216 24.05882353 -19 18 C-19.73660949 13.75612489 -19.88338438 10.38057715 -17.5078125 6.66796875 C-12.09839927 0.43928754 -8.29239057 -1.18931841 0 0 Z"/>
<path transform="translate(58,114)" fill="#4385F4" d="M0 0 C4.97303592 2.39941959 9.54785895 5.35060085 14.21484375 8.29150391 C17.41776032 10.25626637 20.66910879 12.12770873 23.9375 13.98046875 C24.54776031 14.32643097 25.15802063 14.67239319 25.78677368 15.02883911 C28.24801101 16.42198091 30.71073609 17.81248067 33.17352295 19.20288086 C55.90850264 32.0586571 55.90850264 32.0586571 59 37 C59.87570205 42.22265547 59.61426036 46.7259785 57.3125 51.5 C53.62265219 55.48902466 50.9932537 57.16202928 45.546875 57.453125 C38.80161806 57.35925463 34.02515189 54.28905413 28.375 50.875 C27.30193604 50.24916016 26.22887207 49.62332031 25.12329102 48.97851562 C22.87499397 47.66480802 20.63195839 46.34205801 18.39404297 45.01074219 C15.05182456 43.03070257 11.68918462 41.09150628 8.31640625 39.1640625 C6.18968194 37.94344369 4.06336464 36.72211542 1.9375 35.5 C0.95765137 34.93780762 -0.02219727 34.37561523 -1.03173828 33.79638672 C-16.64251854 24.70385839 -16.64251854 24.70385839 -19 19 C-19.86786347 14.48403789 -19.98852449 10.58215538 -17.50390625 6.60546875 C-12.20812859 0.49495607 -8.16281127 -1.6365784 0 0 Z"/>
<path transform="translate(109.20703125,85.69921875)" fill="#EA4437" d="M0 0 C3.77859985 2.32599942 6.24481728 4.11166551 7.79296875 8.30078125 C8.44403728 13.15938014 8.35162342 17.03773591 6.35546875 21.55078125 C0.26825775 28.08339793 -8.35245422 32.29257371 -16.01953125 36.73828125 C-16.94701172 37.29193359 -17.87449219 37.84558594 -18.83007812 38.41601562 C-19.72404297 38.93357422 -20.61800781 39.45113281 -21.5390625 39.984375 C-22.34061768 40.45415771 -23.14217285 40.92394043 -23.96801758 41.40795898 C-26.65160105 42.47805655 -27.55478636 42.35838329 -30.20703125 41.30078125 C-31.80615148 40.52207923 -33.38180666 39.69422646 -34.9375 38.83203125 C-35.82244141 38.34347656 -36.70738281 37.85492188 -37.61914062 37.3515625 C-38.99295898 36.58392578 -38.99295898 36.58392578 -40.39453125 35.80078125 C-41.32201172 35.28902344 -42.24949219 34.77726562 -43.20507812 34.25 C-50.05743919 30.45037331 -50.05743919 30.45037331 -51.20703125 29.30078125 C-52.55450209 29.07003043 -53.9108069 28.88925062 -55.26953125 28.73828125 C-56.56890625 28.59390625 -57.86828125 28.44953125 -59.20703125 28.30078125 C-55.69622516 25.36117293 -52.13803782 22.98253033 -48.15625 20.7265625 C-47.58467667 20.40096848 -47.01310333 20.07537445 -46.42420959 19.73991394 C-44.58361905 18.69297239 -42.73946585 17.65254612 -40.89453125 16.61328125 C-38.99085216 15.53803812 -37.08743357 14.462335 -35.18405151 13.38656616 C-33.93043906 12.67827583 -32.67647401 11.97060917 -31.42214966 11.26358032 C-27.94954517 9.30240457 -24.50443653 7.30391011 -21.0859375 5.25 C-20.37026611 4.82614014 -19.65459473 4.40228027 -18.91723633 3.96557617 C-17.6628256 3.22017904 -16.4156933 2.4623057 -15.1784668 1.6887207 C-10.21272643 -1.22238034 -5.53985732 -1.75510524 0 0 Z"/>
<path transform="translate(174,128)" fill="#F8BB07" d="M0 0 C0.96486328 0.52787109 0.96486328 0.52787109 1.94921875 1.06640625 C3.87122498 2.11651807 5.79594981 3.16166206 7.72265625 4.203125 C9.93329874 5.41515783 12.1285875 6.65556676 14.30859375 7.921875 C20.71738029 11.57541173 25.57897467 13.87421991 33 14 C29.48919391 16.93960832 25.93100657 19.31825092 21.94921875 21.57421875 C21.37778137 21.89981277 20.80634399 22.2254068 20.21759033 22.56086731 C18.37697175 23.608011 16.53273752 24.64851963 14.6875 25.6875 C12.78069466 26.76279995 10.87401991 27.8383302 8.96754456 28.91421509 C7.71253032 29.62245563 6.45719187 30.33012198 5.20152283 31.03720093 C1.75732543 32.98277281 -1.6471663 34.977065 -5.015625 37.05078125 C-16.98632748 44.36182161 -16.98632748 44.36182161 -24.72265625 43.62890625 C-29.38687095 42.34084696 -31.84339534 39.89262581 -34.375 35.75 C-35.45331155 31.00542919 -36.43724563 26.46098635 -33.86206055 22.05151367 C-28.60244132 15.8611304 -22.37128563 12.38641554 -15.25 8.625 C-13.00489514 7.40943244 -10.76008929 6.19331242 -8.515625 4.9765625 C-7.52852539 4.45143066 -6.54142578 3.92629883 -5.52441406 3.38525391 C-2.87249693 1.97712259 -2.87249693 1.97712259 0 0 Z"/>
<path transform="translate(203.5625,141.9375)" fill="#D6B91F" d="M0 0 C1.134375 0.020625 2.26875 0.04125 3.4375 0.0625 C-1.3125 4.0625 -1.3125 4.0625 -3.5625 4.0625 C-3.8925 3.0725 -4.2225 2.0825 -4.5625 1.0625 C-3.5625 0.0625 -3.5625 0.0625 0 0 Z"/>
</svg>