<?xml version="1.0" encoding="UTF-8"?>
<svg version="1.1" xmlns="http://www.w3.org/2000/svg" width="204" height="204">
<path d="M0 0 C20.96176519 17.29758261 35.56032527 40.08967299 39.125 67.375 C41.16569277 97.0303654 35.69623759 123.41104796 16.453125 146.73046875 C-1.26722564 166.85912208 -24.73704943 181.71398046 -52.08935547 183.59619141 C-82.85768796 184.64944095 -109.14556815 178.28003982 -132.36962891 157.00585938 C-151.38980071 139.1733293 -164.30619195 115.23871363 -165.2109375 88.80859375 C-165.61902328 57.36591897 -157.71801145 31.86405946 -135.54223633 8.75634766 C-99.60062439 -27.80543774 -40.46494156 -31.05300104 0 0 Z " fill="#FDFEFE" transform="translate(164.875,20.625)"/>
<path d="M0 0 C10.32626984 6.76014061 16.94447511 15.84590916 21.2265625 27.390625 C21.41796875 31.32421875 21.41796875 31.32421875 21.2265625 34.390625 C21.8865625 34.390625 22.5465625 34.390625 23.2265625 34.390625 C23.11828125 32.90369141 23.11828125 32.90369141 23.0078125 31.38671875 C23.01698877 26.82496417 24.64720296 23.44087239 26.7265625 19.453125 C27.0889502 18.74945801 27.45133789 18.04579102 27.82470703 17.32080078 C32.87514657 7.89520765 39.73180169 2.19486026 49.2265625 -2.609375 C50.04640625 -3.02445313 50.86625 -3.43953125 51.7109375 -3.8671875 C62.59858515 -8.58516815 75.54863643 -8.15028297 86.5078125 -3.875 C93.7340112 -0.51107992 99.54791751 2.84052202 104.2265625 9.390625 C102.6590107 11.0927948 101.07196466 12.77703054 99.4765625 14.453125 C98.59484375 15.39285156 97.713125 16.33257812 96.8046875 17.30078125 C94.2265625 19.390625 94.2265625 19.390625 92.0390625 19.3125 C90.2265625 18.390625 90.2265625 18.390625 87.9765625 16.578125 C79.77557299 10.05461062 72.67419342 9.49412862 62.2265625 10.390625 C54.67035123 11.54932624 49.24261386 16.92179732 44.2265625 22.390625 C41.00402528 27.05949783 40.17494504 30.70032976 39.2265625 36.390625 C64.6365625 36.390625 90.0465625 36.390625 116.2265625 36.390625 C116.2265625 51.12596478 113.3393666 63.03157812 103.2265625 74.140625 C92.53015438 84.25590399 79.07170488 88.02041978 64.71484375 87.703125 C59.01337695 87.4177544 54.29800252 85.99902488 49.2265625 83.390625 C48.35515625 82.94332031 47.48375 82.49601562 46.5859375 82.03515625 C36.82038175 76.58223365 28.79040435 68.68324265 25.41015625 57.75 C24.93716025 55.6463255 24.56989849 53.51930816 24.2265625 51.390625 C22.9065625 51.390625 21.5865625 51.390625 20.2265625 51.390625 C20.0203125 52.669375 19.8140625 53.948125 19.6015625 55.265625 C17.27777149 65.60080738 10.68839754 73.82969083 1.94921875 79.52734375 C-10.66925241 87.14112052 -23.13459039 89.77850251 -37.671875 86.515625 C-49.72575721 82.54124301 -59.96255966 74.8401871 -66.3125 63.6875 C-70.78157392 54.33119319 -71.7734375 46.95436742 -71.7734375 36.390625 C-46.3634375 36.390625 -20.9534375 36.390625 5.2265625 36.390625 C2.02068447 25.1700519 -0.847528 19.15417667 -11.09375 12.99609375 C-18.74487533 9.42304347 -27.65543054 8.73220044 -35.71484375 11.34375 C-40.61946395 13.65352643 -44.14124871 16.41791851 -47.7734375 20.390625 C-49.7734375 20.390625 -49.7734375 20.390625 -51.39453125 18.78125 C-52.29365234 17.72164062 -52.29365234 17.72164062 -53.2109375 16.640625 C-53.80777344 15.94453125 -54.40460937 15.2484375 -55.01953125 14.53125 C-56.66424848 12.52388911 -58.23469858 10.47992188 -59.7734375 8.390625 C-42.84898063 -8.08414823 -20.75380009 -12.0430502 0 0 Z " fill="#2F9047" transform="translate(79.7734375,61.609375)"/>
<path d="M0 0 C18.81 0 37.62 0 57 0 C55.55201273 7.23993636 50.90260655 12.38006833 44.765625 16.5 C36.38354164 20.78557645 26.7518104 21.72010406 17.6953125 19.01171875 C10.28423311 15.66447552 5.19882983 10.97120788 1 4 C0.67 2.68 0.34 1.36 0 0 Z " fill="#F9FCFA" transform="translate(26,113)"/>
<path d="M0 0 C18.81 0 37.62 0 57 0 C53.73049588 8.1737603 47.76938178 14.63001127 39.83203125 18.57421875 C32.91536577 21.45961593 24.1189903 21.20048292 16.984375 19.12109375 C9.79354818 15.77934448 3.42419428 10.25123495 0 3 C0 2.01 0 1.02 0 0 Z " fill="#F9FCFA" transform="translate(121,113)"/>
</svg>
