<svg xmlns="http://www.w3.org/2000/svg" version="1.1" viewBox="0 0 238.592 208.384" style="max-height: 500px" width="238.592" height="208.384">
<path transform="translate(0,0)" fill="#FCFAFA" d="M0 0 C84.48 0 168.96 0 256 0 C256 84.48 256 168.96 256 256 C171.52 256 87.04 256 0 256 C0 171.52 0 87.04 0 0 Z"/>
<path transform="translate(52.6875,-0.125)" fill="#D80303" d="M0 0 C0.74572266 -0.00386719 1.49144531 -0.00773437 2.25976562 -0.01171875 C5.78189146 -0.00543485 8.92531445 0.17792355 12.3125 1.125 C12.3125 1.785 12.3125 2.445 12.3125 3.125 C13.240625 3.145625 14.16875 3.16625 15.125 3.1875 C25.26614925 4.7035506 33.46642384 13.28701483 39.3125 21.125 C48.77331649 35.90752576 49.61335594 55.05388993 49.55632973 72.12449074 C49.55058723 74.3445387 49.56013075 76.56409211 49.5735321 78.78410339 C49.61005094 85.084041 49.62927807 91.38379646 49.61791992 97.68383789 C48.96644002 130.50071525 48.96644002 130.50071525 63.15625 159.23828125 C67.67133582 163.56523849 72.27287451 165.65703547 78.3125 167.125 C78.3125 167.785 78.3125 168.445 78.3125 169.125 C101.7425 169.125 125.1725 169.125 149.3125 169.125 C148.9825 139.095 148.6525 109.065 148.3125 78.125 C139.128893 77.923724 139.128893 77.923724 132.3125 81.125 C129.55240365 80.41526094 128.47199158 79.28999129 126.5 77.25 C125.3125 75.125 125.3125 75.125 125.4453125 73.16015625 C127.21657937 69.00326417 132.34476305 67.73878903 136.3125 66.125 C144.32773229 63.9985098 151.34968849 65.13429712 159.3125 67.125 C159.3125 104.745 159.3125 142.365 159.3125 181.125 C139.203125 181.186875 139.203125 181.186875 118.6875 181.25 C112.37890869 181.27731201 112.37890869 181.27731201 105.94287109 181.30517578 C100.73754883 181.31420898 100.73754883 181.31420898 98.28726196 181.31588745 C96.60536637 181.31892355 94.92347465 181.32588317 93.24160767 181.33615112 C82.71823763 181.39708758 72.69996667 181.00755407 62.3125 179.125 C62.3125 178.465 62.3125 177.805 62.3125 177.125 C61.405 177.104375 60.4975 177.08375 59.5625 177.0625 C51.00316575 175.8099145 43.29865606 169.97900432 38.08203125 163.328125 C36.29275715 161.02312 36.29275715 161.02312 33.94921875 158.734375 C19.09467474 143.67696165 12.38844847 121.72740744 8.91796875 101.25390625 C8.39361783 98.15787924 8.39361783 98.15787924 7.38305664 95.40942383 C6.20510371 91.7955126 5.36910864 88.15723345 4.578125 84.4453125 C4.24790811 82.94259567 3.91716075 81.43999533 3.5859375 79.9375 C3.07626622 77.61145738 2.56994424 75.28490322 2.07324219 72.95605469 C-3.05820914 48.98528707 -10.45239891 29.37713986 -30.5 14.03515625 C-32.6875 12.125 -32.6875 12.125 -33.6875 9.125 C-22.2679405 3.20461362 -12.98773768 -0.06841653 0 0 Z"/>
<path transform="translate(232,50)" fill="#D80808" d="M0 0 C0 50.82 0 101.64 0 154 C-19.84125 154.020625 -39.6825 154.04125 -60.125 154.0625 C-66.38742676 154.071604 -72.64985352 154.08070801 -79.10205078 154.09008789 C-86.75561523 154.09460449 -86.75561523 154.09460449 -90.33981323 154.09544373 C-92.8403847 154.09697821 -95.34095544 154.10049299 -97.84152222 154.10557556 C-101.63150313 154.11289315 -105.42143886 154.11390605 -109.21142578 154.11352539 C-110.32340899 154.1171235 -111.43539219 154.12072161 -112.58107185 154.12442875 C-117.49853845 154.1178153 -122.16883085 154.05217875 -127 153 C-127 152.34 -127 151.68 -127 151 C-127.71542969 150.98582031 -128.43085938 150.97164062 -129.16796875 150.95703125 C-141.01228828 150.39009746 -152.52961313 146.28984633 -162 139 C-162 138.34 -162 137.68 -162 137 C-162.73605469 136.76152344 -163.47210938 136.52304688 -164.23046875 136.27734375 C-177.64834054 130.08884717 -186.09919503 110.87266602 -192 98 C-192.34063477 97.26217285 -192.68126953 96.5243457 -193.03222656 95.76416016 C-197.54205595 85.87690016 -201.0048544 76.00040435 -203.84985352 65.51635742 C-207.68334199 51.57343087 -212.41472421 39.08159857 -225 31 C-226.32258472 30.31225595 -227.65315387 29.63892701 -229 29 C-229 28.34 -229 27.68 -229 27 C-229.66 27 -230.32 27 -231 27 C-229.68946229 22.87916485 -228.32262014 21.07158933 -224.6875 18.75 C-223.92824219 18.24984375 -223.16898438 17.7496875 -222.38671875 17.234375 C-218.20144771 15.06981584 -214.15468464 14.84518739 -209.5 14.8125 C-208.12328125 14.79123047 -208.12328125 14.79123047 -206.71875 14.76953125 C-203.80447367 15.01657479 -201.64641203 15.78706115 -199 17 C-199 17.66 -199 18.32 -199 19 C-198.23816406 19.25007813 -197.47632813 19.50015625 -196.69140625 19.7578125 C-191.47984579 22.1631481 -189.00242475 27.47513395 -186.94580078 32.65527344 C-184.09176776 41.26342927 -182.09699874 49.95580431 -180.20117188 58.81640625 C-178.98339106 64.32710671 -177.7049568 69.01163811 -175 74 C-174.5115926 75.40260144 -174.0476291 76.81383288 -173.6015625 78.23046875 C-166.76215215 99.42731834 -154.09201475 120.79321886 -133.96875 131.6328125 C-130.99569068 133.12655832 -128.00612528 134.57423773 -125 136 C-124.38364685 136.34426529 -123.7672937 136.68853058 -123.13226318 137.04322815 C-113.03952327 141.57196059 -97.53129058 139.22852614 -86.609375 139.31640625 C-84.69547137 139.33484629 -82.78157154 139.35368481 -80.86767578 139.3729248 C-73.82849537 139.44092873 -66.78924255 139.50126431 -59.75 139.5625 C-43.9925 139.706875 -28.235 139.85125 -12 140 C-12.33 96.11 -12.66 52.22 -13 7 C-26.00176286 4.63604312 -36.09769378 4.66926081 -49 7 C-49 7.66 -49 8.32 -49 9 C-49.84304687 9.40992188 -50.68609375 9.81984375 -51.5546875 10.2421875 C-52.65039062 10.78101562 -53.74609375 11.31984375 -54.875 11.875 C-56.51082031 12.67550781 -56.51082031 12.67550781 -58.1796875 13.4921875 C-61.03882547 14.84535937 -61.03882547 14.84535937 -63 17 C-65.0234375 16.79296875 -65.0234375 16.79296875 -67.375 16.1875 C-68.14585937 15.99542969 -68.91671875 15.80335937 -69.7109375 15.60546875 C-70.46632812 15.40566406 -71.22171875 15.20585938 -72 15 C-73.33306527 14.66559625 -74.66630921 14.33190022 -76 14 C-76 13.01 -76 12.02 -76 11 C-73.91015625 9.3515625 -73.91015625 9.3515625 -71.0625 7.625 C-69.56396484 6.71427734 -69.56396484 6.71427734 -68.03515625 5.78515625 C-67.03355469 5.19605469 -66.03195313 4.60695313 -65 4 C-64.13246094 3.48308594 -63.26492187 2.96617188 -62.37109375 2.43359375 C-56.4332265 -1 -56.4332265 -1 -53 -1 C-53 -1.66 -53 -2.32 -53 -3 C-36.17897852 -9.19721844 -15.88571688 -7.94285844 0 0 Z"/>
<path transform="translate(167.38671875,75.1875)" fill="#010101" d="M0 0 C9.22883831 6.40086842 15.689448 15.61383854 18.28515625 26.67578125 C19.69187865 40.12337749 19.43535631 52.99974214 12.80078125 65.125 C12.07890625 66.011875 11.35703125 66.89875 10.61328125 67.8125 C10.10925781 68.45703125 9.60523438 69.1015625 9.0859375 69.765625 C2.15998175 78.24638714 -4.51872659 81.6440708 -15.38671875 82.8125 C-23.33893122 83.56985357 -31.43890575 81.63320944 -38 76.9453125 C-46.30463023 69.52415357 -50.27561858 61.41427483 -53.38671875 50.8125 C-53.59039062 50.12929687 -53.7940625 49.44609375 -54.00390625 48.7421875 C-56.62474617 35.53101485 -53.16218863 22.11613044 -46.38671875 10.8125 C-41.93766922 4.29595098 -35.19357191 -1.23889156 -27.640625 -3.7734375 C-17.85795673 -5.57060013 -8.6812397 -5.07482483 0 0 Z"/>
<path transform="translate(111,214)" fill="#060606" d="M0 0 C19 0 19 0 24 3 C25.33827901 5.67655801 25.20578556 7.82434052 25.25 10.8125 C25.27578125 11.85019531 25.3015625 12.88789063 25.328125 13.95703125 C24.95782291 17.39114233 24.08186391 19.26629035 22 22 C21.34 22 20.68 22 20 22 C20.5053125 23.12019531 21.010625 24.24039063 21.53125 25.39453125 C22.18779058 26.86705798 22.84402466 28.33972139 23.5 29.8125 C23.83386719 30.55048828 24.16773438 31.28847656 24.51171875 32.04882812 C24.82753906 32.76103516 25.14335937 33.47324219 25.46875 34.20703125 C25.90864258 35.18893433 25.90864258 35.18893433 26.35742188 36.19067383 C27 38 27 38 27 41 C23.37 41 19.74 41 16 41 C15.66226563 40.00097656 15.32453125 39.00195312 14.9765625 37.97265625 C14.52642664 36.66913783 14.07588475 35.36575957 13.625 34.0625 C13.40328125 33.40314453 13.1815625 32.74378906 12.953125 32.06445312 C11.87090848 28.32423336 11.87090848 28.32423336 9 26 C9 30.95 9 35.9 9 41 C6.03 41 3.06 41 0 41 C0 27.47 0 13.94 0 0 Z"/>
<path transform="translate(238,214)" fill="#F8F8F8" d="M0 0 C5.94 0 11.88 0 18 0 C18 13.53 18 27.06 18 41 C12.06 41 6.12 41 0 41 C0 27.47 0 13.94 0 0 Z"/>
<path transform="translate(83,213)" fill="#090909" d="M0 0 C6.93 0 13.86 0 21 0 C21 2.97 21 5.94 21 9 C17.37 9 13.74 9 10 9 C10 11.64 10 14.28 10 17 C13.3 17 16.6 17 20 17 C20 19.64 20 22.28 20 25 C16.7 25 13.4 25 10 25 C10 27.64 10 30.28 10 33 C13.96 33 17.92 33 22 33 C22 35.97 22 38.94 22 42 C14.74 42 7.48 42 0 42 C0 28.14 0 14.28 0 0 Z"/>
<path transform="translate(66.5,211.875)" fill="#0C0C0C" d="M0 0 C0.7734375 -0.00257813 1.546875 -0.00515625 2.34375 -0.0078125 C4.5 0.125 4.5 0.125 7.5 1.125 C9.10725635 4.33951269 8.55748185 7.56112536 8.5 11.125 C5.2 10.795 1.9 10.465 -1.5 10.125 C-1.15555119 12.59766765 -1.15555119 12.59766765 -0.5 15.125 C0.16 15.455 0.82 15.785 1.5 16.125 C1.5 16.785 1.5 17.445 1.5 18.125 C2.2425 18.16625 2.985 18.2075 3.75 18.25 C6.5 19.125 6.5 19.125 8.8125 21.5 C11.12737409 26.47269249 11.56139969 30.73215304 10.5 36.125 C8.4994947 39.60758697 6.11185319 42.3190734 2.5 44.125 C0.52275939 44.22172832 -1.4579006 44.25479903 -3.4375 44.25 C-4.49839844 44.25257813 -5.55929688 44.25515625 -6.65234375 44.2578125 C-9.5 44.125 -9.5 44.125 -12.5 43.125 C-12.5 39.495 -12.5 35.865 -12.5 32.125 C-10.85 32.785 -9.2 33.445 -7.5 34.125 C-5.1679198 34.20146165 -2.83154122 34.21643299 -0.5 34.125 C-0.5 32.475 -0.5 30.825 -0.5 29.125 C-2.975 28.135 -2.975 28.135 -5.5 27.125 C-5.5 26.465 -5.5 25.805 -5.5 25.125 C-6.098125 24.8775 -6.69625 24.63 -7.3125 24.375 C-9.90103705 22.89583597 -10.94841953 21.66713749 -12.5 19.125 C-12.86328125 16.46875 -12.86328125 16.46875 -12.8125 13.625 C-12.80863281 12.6865625 -12.80476563 11.748125 -12.80078125 10.78125 C-12.32540493 6.58312145 -10.720761 3.83043924 -7.5 1.125 C-4.68772378 0.18757459 -2.91253156 -0.00970844 0 0 Z"/>
<path transform="translate(151,214)" fill="#222222" d="M0 0 C15 0 15 0 19 3 C20.05336511 6.16009533 20.20032888 8.5553136 20.25 11.875 C20.27578125 12.90367187 20.3015625 13.93234375 20.328125 14.9921875 C19.94943732 18.46349125 19.12838072 20.24844474 17 23 C12.89867464 25.83025345 8.810033 25.14147156 4 25 C4 30.28 4 35.56 4 41 C2.68 41 1.36 41 0 41 C0 27.47 0 13.94 0 0 Z"/>
<path transform="translate(37,213)" fill="#151515" d="M0 0 C3.63 0 7.26 0 11 0 C11 13.86 11 27.72 11 42 C7.37 42 3.74 42 0 42 C0 28.14 0 14.28 0 0 Z"/>
<path transform="translate(19,213)" fill="#171717" d="M0 0 C3.63 0 7.26 0 11 0 C11 13.86 11 27.72 11 42 C7.37 42 3.74 42 0 42 C0 28.14 0 14.28 0 0 Z"/>
<path transform="translate(206,214)" fill="#0F0F0F" d="M0 0 C5 1 5 1 6.40625 2.68310547 C6.7671875 3.40385254 7.128125 4.12459961 7.5 4.8671875 C8.11875 6.07375 8.11875 6.07375 8.75 7.3046875 C9.36875 8.57699219 9.36875 8.57699219 10 9.875 C10.4125 10.68453125 10.825 11.4940625 11.25 12.328125 C14.35273982 18.47542827 17.14807565 24.72576644 20 31 C20.33 20.77 20.66 10.54 21 0 C21.99 0 22.98 0 24 0 C24 13.53 24 27.06 24 41 C22.35 40.67 20.7 40.34 19 40 C17.515 35.545 17.515 35.545 16 31 C15.34 31 14.68 31 14 31 C13.62875 30.0925 13.2575 29.185 12.875 28.25 C10.44540437 22.74291657 7.69187306 17.38374611 5 12 C4.67 21.57 4.34 31.14 4 41 C2.68 41 1.36 41 0 41 C0 27.47 0 13.94 0 0 Z"/>
<path transform="translate(196,213)" fill="#252525" d="M0 0 C1.65 0 3.3 0 5 0 C5.07474224 4.26835703 5.12887823 8.53635674 5.16479492 12.80517578 C5.17978417 14.25413661 5.20018271 15.70305283 5.22631836 17.15185547 C5.49793719 32.6074994 5.49793719 32.6074994 2 39 C0.515 39.495 0.515 39.495 -1 40 C-1 40.66 -1 41.32 -1 42 C-5.30792793 43.43597598 -9.65344068 44.16824412 -13.8203125 42.09375 C-16.47350315 40.094244 -17.87427917 38.52268706 -18.65405273 35.28076172 C-19.03112191 31.70485798 -19.11251559 28.22877246 -19.09765625 24.6328125 C-19.0962413 23.95322479 -19.09482635 23.27363708 -19.09336853 22.57345581 C-19.08781518 20.42392388 -19.07527169 18.27449992 -19.0625 16.125 C-19.05747896 14.65885568 -19.05291711 13.19270971 -19.04882812 11.7265625 C-19.03786111 8.15100717 -19.02062919 4.57551414 -19 1 C-17.68 1 -16.36 1 -15 1 C-14.97494385 1.94842773 -14.9498877 2.89685547 -14.92407227 3.87402344 C-14.8288116 7.40018032 -14.72958559 10.92617959 -14.62768555 14.45214844 C-14.58443293 15.97684386 -14.54275115 17.50158469 -14.50268555 19.02636719 C-14.44474797 21.22084222 -14.38112205 23.41509068 -14.31640625 25.609375 C-14.29969376 26.2886908 -14.28298126 26.96800659 -14.26576233 27.66790771 C-14.16492528 30.90538552 -13.96860824 33.89769604 -13 37 C-11.56416999 37.10836453 -10.1259798 37.18576167 -8.6875 37.25 C-7.88699219 37.29640625 -7.08648437 37.3428125 -6.26171875 37.390625 C-3.9087922 37.20190122 -3.9087922 37.20190122 -2.390625 35.45117188 C-0.51346841 32.14241974 -0.52207083 29.09847846 -0.48828125 25.390625 C-0.47033005 24.66381531 -0.45237885 23.93700562 -0.43388367 23.18817139 C-0.37986759 20.87550593 -0.3459144 18.56304579 -0.3125 16.25 C-0.27931907 14.6783569 -0.24482868 13.10674086 -0.20898438 11.53515625 C-0.12414672 7.69025254 -0.05729494 3.84540878 0 0 Z"/>
<path transform="translate(238,214)" fill="#222222" d="M0 0 C5.94 0 11.88 0 18 0 C18 1.65 18 3.3 18 5 C13.05 5 8.1 5 3 5 C3 8.96 3 12.92 3 17 C6.96 17 10.92 17 15 17 C15 18.65 15 20.3 15 22 C11.04 22 7.08 22 3 22 C3 26.62 3 31.24 3 36 C7.95 36 12.9 36 18 36 C18 37.65 18 39.3 18 41 C12.06 41 6.12 41 0 41 C0 27.47 0 13.94 0 0 Z"/>
<path transform="translate(210,224)" fill="#F5F5F5" d="M0 0 C2.58193466 3.44257955 4.62964811 6.73805692 6.6875 10.5 C7.31011719 11.6240625 7.93273437 12.748125 8.57421875 13.90625 C10 17 10 17 10 21 C10.66 21 11.32 21 12 21 C12.36351562 21.93972656 12.36351562 21.93972656 12.734375 22.8984375 C13.23710937 24.12433594 13.23710937 24.12433594 13.75 25.375 C14.07484375 26.18710938 14.3996875 26.99921875 14.734375 27.8359375 C16.00256591 30.45654153 16.00256591 30.45654153 20 32 C12.08 32 4.16 32 -4 32 C-2.68 31.67 -1.36 31.34 0 31 C0 20.77 0 10.54 0 0 Z"/>
<path transform="translate(155,219)" fill="#FCFCFC" d="M0 0 C1.588125 -0.061875 3.17625 -0.12375 4.8125 -0.1875 C6.15248047 -0.23970703 6.15248047 -0.23970703 7.51953125 -0.29296875 C10 0 10 0 11.80078125 1.26171875 C13.23613172 3.34227562 13.40352591 4.48971967 13.375 7 C13.38273438 7.680625 13.39046875 8.36125 13.3984375 9.0625 C12.86968681 11.63367981 12.14595327 12.49643621 10 14 C7.51953125 14.29296875 7.51953125 14.29296875 4.8125 14.1875 C3.224375 14.125625 1.63625 14.06375 0 14 C0 9.38 0 4.76 0 0 Z"/>
<path transform="translate(239,232)" fill="#1E1E1E" d="M0 0 C4.29 0.33 8.58 0.66 13 1 C13 1.66 13 2.32 13 3 C9.37 3 5.74 3 2 3 C2 7.95 2 12.9 2 18 C6.95 18 11.9 18 17 18 C17 19.32 17 20.64 17 22 C11.39 22 5.78 22 0 22 C0 14.74 0 7.48 0 0 Z"/>
<path transform="translate(121,240)" fill="#EBEBEB" d="M0 0 C2.84836701 2.84836701 3.54372803 3.86897788 4.6875 7.5 C4.93886719 8.2734375 5.19023438 9.046875 5.44921875 9.84375 C6 12 6 12 6 15 C8.31 15 10.62 15 13 15 C13 15.33 13 15.66 13 16 C8.71 16 4.42 16 0 16 C0 10.72 0 5.44 0 0 Z"/>
<path transform="translate(120,221)" fill="#DADADA" d="M0 0 C5 1 5 1 6 2 C6.25 5.4375 6.25 5.4375 6 9 C3 11 3 11 0 11 C0 7.37 0 3.74 0 0 Z"/>
<path transform="translate(239,232)" fill="#000000" d="M0 0 C4.29 0.33 8.58 0.66 13 1 C13 1.66 13 2.32 13 3 C9.37 3.33 5.74 3.66 2 4 C1.67 8.95 1.34 13.9 1 19 C0.67 19 0.34 19 0 19 C0 12.73 0 6.46 0 0 Z"/>
<path transform="translate(34,0)" fill="#F3BEBE" d="M0 0 C3.3 0 6.6 0 10 0 C10 0.33 10 0.66 10 1 C8.4221875 1.2165625 8.4221875 1.2165625 6.8125 1.4375 C3.84539451 1.87526966 0.93205634 2.37804866 -2 3 C-1.34 2.67 -0.68 2.34 0 2 C0 1.34 0 0.68 0 0 Z"/>
</svg>