<svg xmlns="http://www.w3.org/2000/svg" xmlns:xlink="http://www.w3.org/1999/xlink" width="500" zoomAndPan="magnify" viewBox="0 0 375 374.999991" height="500" preserveAspectRatio="xMidYMid meet" version="1.2"><g id="5ad5180f2e"><rect x="0" width="375" y="0" height="374.999991" style="fill:#ffffff;fill-opacity:1;stroke:none;"/><rect x="0" width="375" y="0" height="374.999991" style="fill:#000000;fill-opacity:1;stroke:none;"/><path style=" stroke:none;fill-rule:nonzero;fill:#ffffff;fill-opacity:1;" d="M 102.1875 98.25 C 91.5 103.3125 79.875 114.1875 75 123.75 C 66.5625 140.25 65.625 167.25 72.9375 181.6875 C 77.25 190.125 86.4375 199.6875 93.5625 203.25 C 109.5 211.5 115.6875 212.25 160.3125 212.0625 C 201.5625 211.875 203.4375 211.6875 207.5625 207.75 C 213.375 202.3125 213 195 207 189.1875 C 202.3125 184.6875 201.5625 184.6875 158.8125 183.75 C 111 182.625 107.625 182.0625 101.0625 171.375 C 91.5 155.8125 96.5625 134.0625 111.5625 126.5625 C 118.3125 123.1875 123.5625 122.8125 162.1875 122.25 C 198.1875 121.6875 207.1875 122.0625 217.125 124.6875 C 231 128.4375 247.5 138.75 257.25 149.625 L 264.1875 157.3125 L 267.75 152.25 C 269.8125 149.4375 276.5625 137.8125 283.125 126.5625 C 289.5 115.125 296.4375 103.125 298.5 99.75 L 302.25 93.75 L 111.5625 93.75 Z M 102.1875 98.25 "/><path style=" stroke:none;fill-rule:nonzero;fill:#ffffff;fill-opacity:1;" d="M 119.4375 144.375 C 114.5625 148.3125 113.0625 154.3125 115.875 158.625 C 119.4375 164.0625 126.375 165 164.8125 165 C 199.3125 165 205.125 165.375 212.4375 168.5625 C 223.3125 173.25 229.125 181.6875 230.25 193.875 C 231.5625 211.125 222.5625 223.875 205.3125 228.5625 C 201 229.6875 180 230.625 154.6875 230.625 L 111.5625 230.625 L 107.0625 238.6875 C 104.625 243 100.875 249.5625 98.625 253.125 C 96.1875 256.6875 89.25 268.6875 83.0625 279.75 L 71.625 299.625 L 85.6875 300.375 C 96.75 300.75 100.3125 300.375 101.625 298.125 C 102.5625 296.625 108.5625 286.5 114.9375 275.625 L 126.5625 255.9375 L 169.3125 255.375 C 207.1875 254.8125 213.375 254.4375 222.5625 251.0625 C 235.5 246 244.5 238.125 250.875 226.125 C 257.4375 213.1875 258 191.0625 251.8125 177.75 C 246.375 165.9375 233.0625 151.875 221.8125 146.25 C 213.1875 141.75 211.3125 141.5625 168.5625 141 C 126 140.4375 124.3125 140.625 119.4375 144.375 Z M 119.4375 144.375 "/><path style=" stroke:none;fill-rule:nonzero;fill:#ffffff;fill-opacity:1;" d="M 276.9375 198.75 C 276.375 201.375 275.0625 208.5 273.9375 214.6875 C 269.625 238.6875 255.9375 256.6875 234.375 266.8125 C 221.25 273.1875 222.1875 273 161.25 274.3125 L 137.8125 274.6875 L 124.3125 299.4375 L 177 300.5625 C 209.0625 301.3125 235.125 300.9375 243.5625 299.8125 C 272.25 295.875 288 286.125 297.5625 266.625 C 307.875 245.8125 303.375 222.5625 285.1875 202.3125 C 278.0625 194.25 277.875 194.0625 276.9375 198.75 Z M 276.9375 198.75 "/></g></svg>