<svg style="max-height: 500px" xmlns="http://www.w3.org/2000/svg" xmlns:xlink="http://www.w3.org/1999/xlink" zoomAndPan="magnify" viewBox="0 0 1441.6197975253092 64.32352885588236" preserveAspectRatio="xMidYMid meet" version="1.2" width="1441.6197975253092" height="64.32352885588236"><defs><clipPath id="e6e9c0994b"><path d="M 0.03125 0 L 516 0 L 516 68.25 L 0.03125 68.25 Z M 0.03125 0"/></clipPath><clipPath id="ed4b0d8000"><path d="M 34.484375 24.246094 L 56 24.246094 L 56 45.023438 L 34.484375 45.023438 Z M 34.484375 24.246094"/></clipPath><clipPath id="622131af2b"><path d="M 34.484375 24.246094 L 65 24.246094 L 65 45.023438 L 34.484375 45.023438 Z M 34.484375 24.246094"/></clipPath><clipPath id="809d47f563"><path d="M 68 24.246094 L 90 24.246094 L 90 45.023438 L 68 45.023438 Z M 68 24.246094"/></clipPath><clipPath id="616fa8cb78"><path d="M 60 24.246094 L 99 24.246094 L 99 45.023438 L 60 45.023438 Z M 60 24.246094"/></clipPath><clipPath id="e3eb9ce572"><path d="M 103 24.246094 L 124.066406 24.246094 L 124.066406 45.023438 L 103 45.023438 Z M 103 24.246094"/></clipPath><clipPath id="3147d70f59"><path d="M 94 24.246094 L 124.066406 24.246094 L 124.066406 45.023438 L 94 45.023438 Z M 94 24.246094"/></clipPath><clipPath id="5c663e9e94"><path d="M 914.539062 0 L 1440 0 L 1440 69.121094 L 914.539062 69.121094 Z M 914.539062 0"/></clipPath><clipPath id="2fcc5bbecb"><path d="M 510.230469 0 L 971.378906 0 L 971.378906 68.511719 L 510.230469 68.511719 Z M 510.230469 0"/></clipPath><clipPath id="4e0a45a7f1"><path d="M 463.523438 0 L 588.773438 0 L 588.773438 66.21875 L 463.523438 66.21875 Z M 463.523438 0"/></clipPath><clipPath id="46d4873d6f"><path d="M 530.308594 7.339844 L 588.773438 7.339844 L 588.773438 55.828125 L 530.308594 55.828125 Z M 530.308594 7.339844"/></clipPath><clipPath id="e8237a2ba1"><path d="M 856.65625 0 L 1006.65625 0 L 1006.65625 66.21875 L 856.65625 66.21875 Z M 856.65625 0"/></clipPath><clipPath id="c3af61a620"><path d="M 856.65625 7.339844 L 903.625 7.339844 L 903.625 55.828125 L 856.65625 55.828125 Z M 856.65625 7.339844"/></clipPath><clipPath id="ebcc994ea5"><path d="M 579.984375 7.546875 L 861.773438 7.546875 L 861.773438 56.039062 L 579.984375 56.039062 Z M 579.984375 7.546875"/></clipPath></defs><g id="fdb86198ac"><rect x="0" width="1440" y="0" height="809.999993" style="fill:#ffffff;fill-opacity:1;stroke:none;"/><rect x="0" width="1440" y="0" height="809.999993" style="fill:#ffffff;fill-opacity:1;stroke:none;"/><g clip-rule="nonzero" clip-path="url(#e6e9c0994b)"><path style="stroke:none;fill-rule:nonzero;fill:#25334d;fill-opacity:1;" d="M 0.03125 27.707031 C 0.03125 18.007812 0.03125 13.160156 1.90625 9.457031 C 3.558594 6.195312 6.195312 3.546875 9.4375 1.886719 C 13.121094 0 17.945312 0 27.59375 0 L 1398.90625 0 C 1408.554688 0 1413.378906 0 1417.0625 1.886719 C 1420.304688 3.546875 1422.941406 6.195312 1424.59375 9.457031 C 1426.46875 13.160156 1426.46875 18.007812 1426.46875 27.707031 L 1426.46875 69.269531 L 0.03125 69.269531 Z M 0.03125 27.707031"/></g><path style="stroke:none;fill-rule:nonzero;fill:#b7b7b7;fill-opacity:1;" d="M 173.5625 47.648438 L 198.03125 47.648438 C 201.132812 47.648438 202.75 46.039062 202.75 42.960938 L 202.75 25.46875 C 202.75 22.390625 201.132812 20.78125 198.03125 20.78125 L 173.5625 20.78125 C 170.476562 20.78125 168.859375 22.378906 168.859375 25.46875 L 168.859375 42.960938 C 168.859375 46.039062 170.476562 47.648438 173.5625 47.648438 Z M 173.75 44.789062 C 172.433594 44.789062 171.703125 44.097656 171.703125 42.703125 L 171.703125 25.726562 C 171.703125 24.332031 172.433594 23.640625 173.75 23.640625 L 180.269531 23.640625 L 180.269531 44.789062 Z M 197.84375 23.640625 C 199.160156 23.640625 199.890625 24.332031 199.890625 25.726562 L 199.890625 42.703125 C 199.890625 44.097656 199.160156 44.789062 197.84375 44.789062 L 182.972656 44.789062 L 182.972656 23.640625 Z M 177.46875 28.902344 C 177.984375 28.902344 178.410156 28.457031 178.410156 27.96875 C 178.410156 27.480469 177.984375 27.050781 177.46875 27.050781 L 174.535156 27.050781 C 174.023438 27.050781 173.59375 27.480469 173.59375 27.96875 C 173.59375 28.457031 174.023438 28.902344 174.535156 28.902344 Z M 177.46875 32.769531 C 177.984375 32.769531 178.410156 32.339844 178.410156 31.835938 C 178.410156 31.347656 177.984375 30.914062 177.46875 30.914062 L 174.535156 30.914062 C 174.023438 30.914062 173.59375 31.347656 173.59375 31.835938 C 173.59375 32.339844 174.023438 32.769531 174.535156 32.769531 Z M 177.46875 36.621094 C 177.984375 36.621094 178.410156 36.207031 178.410156 35.703125 C 178.410156 35.214844 177.984375 34.796875 177.46875 34.796875 L 174.535156 34.796875 C 174.023438 34.796875 173.59375 35.214844 173.59375 35.703125 C 173.59375 36.207031 174.023438 36.621094 174.535156 36.621094 Z M 177.46875 36.621094"/><path style="stroke:none;fill-rule:nonzero;fill:#b7b7b7;fill-opacity:1;" d="M 257.40625 45.1875 L 246.933594 34.894531 C 246.570312 34.527344 246.382812 34.121094 246.382812 33.648438 C 246.382812 33.175781 246.570312 32.742188 246.949219 32.390625 L 257.421875 22.105469 C 257.71875 21.808594 258.09375 21.648438 258.523438 21.648438 C 259.425781 21.648438 260.125 22.351562 260.125 23.242188 C 260.125 23.675781 259.949219 24.097656 259.640625 24.40625 L 250.21875 33.632812 L 259.640625 42.886719 C 259.949219 43.199219 260.125 43.605469 260.125 44.050781 C 260.125 44.945312 259.425781 45.648438 258.523438 45.648438 C 258.09375 45.648438 257.71875 45.484375 257.40625 45.1875 Z M 257.40625 45.1875"/><path style="stroke:none;fill-rule:nonzero;fill:#5a5a5a;fill-opacity:1;" d="M 309.140625 45.648438 C 309.585938 45.648438 309.949219 45.484375 310.261719 45.1875 L 320.730469 34.90625 C 321.09375 34.527344 321.28125 34.136719 321.28125 33.648438 C 321.28125 33.175781 321.105469 32.753906 320.730469 32.402344 L 310.261719 22.105469 C 309.949219 21.808594 309.585938 21.648438 309.140625 21.648438 C 308.242188 21.648438 307.539062 22.351562 307.539062 23.242188 C 307.539062 23.675781 307.730469 24.097656 308.027344 24.40625 L 317.460938 33.660156 L 308.027344 42.886719 C 307.714844 43.214844 307.539062 43.605469 307.539062 44.050781 C 307.539062 44.945312 308.242188 45.648438 309.140625 45.648438 Z M 309.140625 45.648438"/><g clip-rule="nonzero" clip-path="url(#ed4b0d8000)"><path style="stroke:none;fill-rule:nonzero;fill:#ed6a5e;fill-opacity:1;" d="M 55.15625 34.636719 C 55.15625 35.320312 55.089844 35.996094 54.960938 36.664062 C 54.828125 37.332031 54.628906 37.984375 54.371094 38.613281 C 54.109375 39.242188 53.792969 39.84375 53.414062 40.410156 C 53.039062 40.976562 52.609375 41.5 52.128906 41.984375 C 51.648438 42.464844 51.128906 42.898438 50.5625 43.277344 C 50 43.65625 49.402344 43.976562 48.777344 44.238281 C 48.148438 44.496094 47.503906 44.695312 46.835938 44.828125 C 46.171875 44.960938 45.5 45.027344 44.820312 45.027344 C 44.140625 45.027344 43.46875 44.960938 42.804688 44.828125 C 42.136719 44.695312 41.492188 44.496094 40.863281 44.238281 C 40.238281 43.976562 39.640625 43.65625 39.078125 43.277344 C 38.511719 42.898438 37.992188 42.464844 37.511719 41.984375 C 37.03125 41.5 36.601562 40.976562 36.226562 40.410156 C 35.847656 39.84375 35.53125 39.242188 35.269531 38.613281 C 35.011719 37.984375 34.8125 37.332031 34.683594 36.664062 C 34.550781 35.996094 34.484375 35.320312 34.484375 34.636719 C 34.484375 33.953125 34.550781 33.277344 34.683594 32.609375 C 34.8125 31.941406 35.011719 31.289062 35.269531 30.660156 C 35.53125 30.03125 35.847656 29.429688 36.226562 28.863281 C 36.601562 28.296875 37.03125 27.769531 37.511719 27.289062 C 37.992188 26.804688 38.511719 26.375 39.078125 25.996094 C 39.640625 25.617188 40.238281 25.296875 40.863281 25.035156 C 41.492188 24.773438 42.136719 24.578125 42.804688 24.445312 C 43.46875 24.3125 44.140625 24.246094 44.820312 24.246094 C 45.5 24.246094 46.171875 24.3125 46.835938 24.445312 C 47.503906 24.578125 48.148438 24.773438 48.777344 25.035156 C 49.402344 25.296875 50 25.617188 50.5625 25.996094 C 51.128906 26.375 51.648438 26.804688 52.128906 27.289062 C 52.609375 27.769531 53.039062 28.296875 53.414062 28.863281 C 53.792969 29.429688 54.109375 30.03125 54.371094 30.660156 C 54.628906 31.289062 54.828125 31.941406 54.960938 32.609375 C 55.089844 33.277344 55.15625 33.953125 55.15625 34.636719 Z M 55.15625 34.636719"/></g><g clip-rule="nonzero" clip-path="url(#622131af2b)"><path style="fill:none;stroke-width:0.778;stroke-linecap:butt;stroke-linejoin:miter;stroke:#000000;stroke-opacity:0.1;stroke-miterlimit:4;" d="M 24.500354 15.556132 C 24.500354 15.836834 24.472136 16.115781 24.417466 16.39122 C 24.362795 16.666658 24.281671 16.933325 24.174094 17.192974 C 24.066516 17.452623 23.934248 17.699992 23.779055 17.933325 C 23.622097 18.166659 23.44574 18.382448 23.246457 18.580694 C 23.048938 18.778939 22.832019 18.956132 22.599228 19.112273 C 22.364674 19.268413 22.117774 19.399992 21.85853 19.508764 C 21.599286 19.615781 21.331223 19.696483 21.056107 19.752623 C 20.78099 19.807009 20.502347 19.833325 20.22194 19.833325 C 19.941532 19.833325 19.662889 19.807009 19.387772 19.752623 C 19.112656 19.696483 18.844594 19.615781 18.585349 19.508764 C 18.326105 19.399992 18.079205 19.268413 17.844651 19.112273 C 17.61186 18.956132 17.394941 18.778939 17.197422 18.580694 C 16.998139 18.382448 16.821782 18.166659 16.664825 17.933325 C 16.509631 17.699992 16.377363 17.452623 16.269785 17.192974 C 16.162208 16.933325 16.081084 16.666658 16.026413 16.39122 C 15.971743 16.115781 15.943526 15.836834 15.943526 15.556132 C 15.943526 15.27543 15.971743 14.996483 16.026413 14.721044 C 16.081084 14.445606 16.162208 14.178939 16.269785 13.91929 C 16.377363 13.659641 16.509631 13.412272 16.664825 13.178939 C 16.821782 12.945606 16.998139 12.729816 17.197422 12.531571 C 17.394941 12.331571 17.61186 12.154378 17.844651 11.998237 C 18.079205 11.842097 18.326105 11.710518 18.585349 11.6035 C 18.844594 11.496483 19.112656 11.415781 19.387772 11.359641 C 19.662889 11.305255 19.941532 11.277185 20.22194 11.277185 C 20.502347 11.277185 20.78099 11.305255 21.056107 11.359641 C 21.331223 11.415781 21.599286 11.496483 21.85853 11.6035 C 22.117774 11.710518 22.364674 11.842097 22.599228 11.998237 C 22.832019 12.154378 23.048938 12.331571 23.246457 12.531571 C 23.44574 12.729816 23.622097 12.945606 23.779055 13.178939 C 23.934248 13.412272 24.066516 13.659641 24.174094 13.91929 C 24.281671 14.178939 24.362795 14.445606 24.417466 14.721044 C 24.472136 14.996483 24.500354 15.27543 24.500354 15.556132 Z M 24.500354 15.556132" transform="matrix(2.214971,0,0,2.226562,0.0293048,0.00002)"/></g><g clip-rule="nonzero" clip-path="url(#809d47f563)"><path style="stroke:none;fill-rule:nonzero;fill:#f4bd50;fill-opacity:1;" d="M 89.613281 34.636719 C 89.613281 35.320312 89.546875 35.996094 89.414062 36.664062 C 89.28125 37.332031 89.085938 37.984375 88.828125 38.613281 C 88.566406 39.242188 88.25 39.84375 87.871094 40.410156 C 87.496094 40.976562 87.066406 41.5 86.585938 41.984375 C 86.105469 42.464844 85.582031 42.898438 85.019531 43.277344 C 84.457031 43.65625 83.859375 43.976562 83.234375 44.238281 C 82.605469 44.496094 81.957031 44.695312 81.292969 44.828125 C 80.628906 44.960938 79.957031 45.027344 79.277344 45.027344 C 78.597656 45.027344 77.925781 44.960938 77.261719 44.828125 C 76.59375 44.695312 75.949219 44.496094 75.320312 44.238281 C 74.695312 43.976562 74.097656 43.65625 73.535156 43.277344 C 72.96875 42.898438 72.445312 42.464844 71.96875 41.984375 C 71.488281 41.5 71.058594 40.976562 70.679688 40.410156 C 70.304688 39.84375 69.984375 39.242188 69.726562 38.613281 C 69.464844 37.984375 69.269531 37.332031 69.136719 36.664062 C 69.003906 35.996094 68.9375 35.320312 68.9375 34.636719 C 68.9375 33.953125 69.003906 33.277344 69.136719 32.609375 C 69.269531 31.941406 69.464844 31.289062 69.726562 30.660156 C 69.984375 30.03125 70.304688 29.429688 70.679688 28.863281 C 71.058594 28.296875 71.488281 27.769531 71.96875 27.289062 C 72.445312 26.804688 72.96875 26.375 73.535156 25.996094 C 74.097656 25.617188 74.695312 25.296875 75.320312 25.035156 C 75.949219 24.773438 76.59375 24.578125 77.261719 24.445312 C 77.925781 24.3125 78.597656 24.246094 79.277344 24.246094 C 79.957031 24.246094 80.628906 24.3125 81.292969 24.445312 C 81.957031 24.578125 82.605469 24.773438 83.234375 25.035156 C 83.859375 25.296875 84.457031 25.617188 85.019531 25.996094 C 85.582031 26.375 86.105469 26.804688 86.585938 27.289062 C 87.066406 27.769531 87.496094 28.296875 87.871094 28.863281 C 88.25 29.429688 88.566406 30.03125 88.828125 30.660156 C 89.085938 31.289062 89.28125 31.941406 89.414062 32.609375 C 89.546875 33.277344 89.613281 33.953125 89.613281 34.636719 Z M 89.613281 34.636719"/></g><g clip-rule="nonzero" clip-path="url(#616fa8cb78)"><path style="fill:none;stroke-width:0.778;stroke-linecap:butt;stroke-linejoin:miter;stroke:#000000;stroke-opacity:0.1;stroke-miterlimit:4;" d="M 40.05678 15.556132 C 40.05678 15.836834 40.028563 16.115781 39.973892 16.39122 C 39.919221 16.666658 39.838097 16.933325 39.73052 17.192974 C 39.622942 17.452623 39.490675 17.699992 39.335481 17.933325 C 39.178523 18.166659 39.002166 18.382448 38.802883 18.580694 C 38.6036 18.778939 38.388445 18.956132 38.153891 19.112273 C 37.9211 19.268413 37.6742 19.399992 37.414956 19.508764 C 37.155712 19.615781 36.887649 19.696483 36.612533 19.752623 C 36.337416 19.807009 36.058773 19.833325 35.778366 19.833325 C 35.497958 19.833325 35.219315 19.807009 34.944198 19.752623 C 34.667318 19.696483 34.40102 19.615781 34.140012 19.508764 C 33.880767 19.399992 33.635632 19.268413 33.401077 19.112273 C 33.168286 18.956132 32.951367 18.778939 32.753848 18.580694 C 32.554565 18.382448 32.376445 18.166659 32.221251 17.933325 C 32.064293 17.699992 31.933789 17.452623 31.826212 17.192974 C 31.718634 16.933325 31.63751 16.666658 31.582839 16.39122 C 31.528169 16.115781 31.499952 15.836834 31.499952 15.556132 C 31.499952 15.27543 31.528169 14.996483 31.582839 14.721044 C 31.63751 14.445606 31.718634 14.178939 31.826212 13.91929 C 31.933789 13.659641 32.064293 13.412272 32.221251 13.178939 C 32.376445 12.945606 32.554565 12.729816 32.753848 12.531571 C 32.951367 12.331571 33.168286 12.154378 33.401077 11.998237 C 33.635632 11.842097 33.880767 11.710518 34.140012 11.6035 C 34.40102 11.496483 34.667318 11.415781 34.944198 11.359641 C 35.219315 11.305255 35.497958 11.277185 35.778366 11.277185 C 36.058773 11.277185 36.337416 11.305255 36.612533 11.359641 C 36.887649 11.415781 37.155712 11.496483 37.414956 11.6035 C 37.6742 11.710518 37.9211 11.842097 38.153891 11.998237 C 38.388445 12.154378 38.6036 12.331571 38.802883 12.531571 C 39.002166 12.729816 39.178523 12.945606 39.335481 13.178939 C 39.490675 13.412272 39.622942 13.659641 39.73052 13.91929 C 39.838097 14.178939 39.919221 14.445606 39.973892 14.721044 C 40.028563 14.996483 40.05678 15.27543 40.05678 15.556132 Z M 40.05678 15.556132" transform="matrix(2.214971,0,0,2.226562,0.0293048,0.00002)"/></g><g clip-rule="nonzero" clip-path="url(#e3eb9ce572)"><path style="stroke:none;fill-rule:nonzero;fill:#61c454;fill-opacity:1;" d="M 124.066406 34.636719 C 124.066406 35.320312 124 35.996094 123.867188 36.664062 C 123.738281 37.332031 123.539062 37.984375 123.28125 38.613281 C 123.019531 39.242188 122.703125 39.84375 122.324219 40.410156 C 121.949219 40.976562 121.519531 41.5 121.039062 41.984375 C 120.558594 42.464844 120.039062 42.898438 119.472656 43.277344 C 118.910156 43.65625 118.3125 43.976562 117.6875 44.238281 C 117.058594 44.496094 116.414062 44.695312 115.746094 44.828125 C 115.082031 44.960938 114.410156 45.027344 113.730469 45.027344 C 113.050781 45.027344 112.378906 44.960938 111.714844 44.828125 C 111.046875 44.695312 110.402344 44.496094 109.773438 44.238281 C 109.148438 43.976562 108.550781 43.65625 107.988281 43.277344 C 107.421875 42.898438 106.902344 42.464844 106.421875 41.984375 C 105.941406 41.5 105.511719 40.976562 105.136719 40.410156 C 104.757812 39.84375 104.441406 39.242188 104.179688 38.613281 C 103.921875 37.984375 103.722656 37.332031 103.589844 36.664062 C 103.460938 35.996094 103.394531 35.320312 103.394531 34.636719 C 103.394531 33.953125 103.460938 33.277344 103.589844 32.609375 C 103.722656 31.941406 103.921875 31.289062 104.179688 30.660156 C 104.441406 30.03125 104.757812 29.429688 105.136719 28.863281 C 105.511719 28.296875 105.941406 27.769531 106.421875 27.289062 C 106.902344 26.804688 107.421875 26.375 107.988281 25.996094 C 108.550781 25.617188 109.148438 25.296875 109.773438 25.035156 C 110.402344 24.773438 111.046875 24.578125 111.714844 24.445312 C 112.378906 24.3125 113.050781 24.246094 113.730469 24.246094 C 114.410156 24.246094 115.082031 24.3125 115.746094 24.445312 C 116.414062 24.578125 117.058594 24.773438 117.6875 25.035156 C 118.3125 25.296875 118.910156 25.617188 119.472656 25.996094 C 120.039062 26.375 120.558594 26.804688 121.039062 27.289062 C 121.519531 27.769531 121.949219 28.296875 122.324219 28.863281 C 122.703125 29.429688 123.019531 30.03125 123.28125 30.660156 C 123.539062 31.289062 123.738281 31.941406 123.867188 32.609375 C 124 33.277344 124.066406 33.953125 124.066406 34.636719 Z M 124.066406 34.636719"/></g><g clip-rule="nonzero" clip-path="url(#3147d70f59)"><path style="fill:none;stroke-width:0.778;stroke-linecap:butt;stroke-linejoin:miter;stroke:#000000;stroke-opacity:0.1;stroke-miterlimit:4;" d="M 55.611442 15.556132 C 55.611442 15.836834 55.583225 16.115781 55.528555 16.39122 C 55.473884 16.666658 55.39276 16.933325 55.285182 17.192974 C 55.177605 17.452623 55.045337 17.699992 54.890143 17.933325 C 54.733186 18.166659 54.556829 18.382448 54.357546 18.580694 C 54.160026 18.778939 53.943108 18.956132 53.710317 19.112273 C 53.475762 19.268413 53.228863 19.399992 52.969619 19.508764 C 52.710374 19.615781 52.442312 19.696483 52.167196 19.752623 C 51.892079 19.807009 51.613435 19.833325 51.333028 19.833325 C 51.052621 19.833325 50.773977 19.807009 50.498861 19.752623 C 50.223744 19.696483 49.955682 19.615781 49.696438 19.508764 C 49.437194 19.399992 49.190294 19.268413 48.95574 19.112273 C 48.722949 18.956132 48.50603 18.778939 48.308511 18.580694 C 48.109227 18.382448 47.932871 18.166659 47.775913 17.933325 C 47.620719 17.699992 47.488452 17.452623 47.380874 17.192974 C 47.273297 16.933325 47.192172 16.666658 47.137502 16.39122 C 47.082831 16.115781 47.054614 15.836834 47.054614 15.556132 C 47.054614 15.27543 47.082831 14.996483 47.137502 14.721044 C 47.192172 14.445606 47.273297 14.178939 47.380874 13.91929 C 47.488452 13.659641 47.620719 13.412272 47.775913 13.178939 C 47.932871 12.945606 48.109227 12.729816 48.308511 12.531571 C 48.50603 12.331571 48.722949 12.154378 48.95574 11.998237 C 49.190294 11.842097 49.437194 11.710518 49.696438 11.6035 C 49.955682 11.496483 50.223744 11.415781 50.498861 11.359641 C 50.773977 11.305255 51.052621 11.277185 51.333028 11.277185 C 51.613435 11.277185 51.892079 11.305255 52.167196 11.359641 C 52.442312 11.415781 52.710374 11.496483 52.969619 11.6035 C 53.228863 11.710518 53.475762 11.842097 53.710317 11.998237 C 53.943108 12.154378 54.160026 12.331571 54.357546 12.531571 C 54.556829 12.729816 54.733186 12.945606 54.890143 13.178939 C 55.045337 13.412272 55.177605 13.659641 55.285182 13.91929 C 55.39276 14.178939 55.473884 14.445606 55.528555 14.721044 C 55.583225 14.996483 55.611442 15.27543 55.611442 15.556132 Z M 55.611442 15.556132" transform="matrix(2.214971,0,0,2.226562,0.0293048,0.00002)"/></g><path style="stroke:none;fill-rule:nonzero;fill:#b7b7b7;fill-opacity:1;" d="M 489.292969 48.488281 C 489.550781 48.488281 489.933594 48.402344 490.289062 48.199219 C 498.5 43.671875 501.351562 41.574219 501.351562 36.308594 L 501.351562 25.386719 C 501.351562 23.648438 500.679688 23.027344 499.253906 22.40625 C 497.671875 21.726562 492.355469 19.84375 490.800781 19.308594 C 490.332031 19.152344 489.777344 19.050781 489.292969 19.050781 C 488.808594 19.050781 488.25 19.179688 487.78125 19.308594 C 486.226562 19.757812 480.910156 21.742188 479.328125 22.40625 C 477.902344 23.011719 477.230469 23.648438 477.230469 25.386719 L 477.230469 36.308594 C 477.230469 41.574219 480.097656 43.644531 488.28125 48.199219 C 488.648438 48.402344 489.035156 48.488281 489.292969 48.488281 Z M 490.0625 21.972656 C 491.929688 22.722656 495.992188 24.183594 498.128906 24.953125 C 498.527344 25.109375 498.628906 25.328125 498.628906 25.847656 L 498.628906 35.773438 C 498.628906 40.011719 496.53125 41.15625 490.105469 45.089844 C 489.703125 45.335938 489.503906 45.421875 489.304688 45.421875 L 489.304688 21.8125 C 489.503906 21.8125 489.71875 21.855469 490.0625 21.972656 Z M 490.0625 21.972656"/><g clip-rule="nonzero" clip-path="url(#5c663e9e94)"><path style="stroke:none;fill-rule:nonzero;fill:#25334d;fill-opacity:1;" d="M -12.914062 27.121094 C -12.914062 17.320312 -12.914062 12.421875 -11 8.675781 C -9.316406 5.382812 -6.632812 2.707031 -3.328125 1.027344 C 0.425781 -0.878906 5.339844 -0.878906 15.171875 -0.878906 L 1412.316406 -0.878906 C 1422.148438 -0.878906 1427.0625 -0.878906 1430.816406 1.027344 C 1434.121094 2.707031 1436.808594 5.382812 1438.488281 8.675781 C 1440.402344 12.421875 1440.402344 17.320312 1440.402344 27.121094 L 1440.402344 69.121094 L -12.914062 69.121094 Z M -12.914062 27.121094"/></g><path style="stroke:none;fill-rule:nonzero;fill:#b7b7b7;fill-opacity:1;" d="M 1264.894531 36.527344 C 1265.636719 36.527344 1266.246094 35.917969 1266.246094 35.191406 L 1266.246094 20.589844 L 1266.144531 18.441406 L 1267.035156 19.5 L 1269.070312 21.664062 C 1269.304688 21.925781 1269.636719 22.054688 1269.972656 22.054688 C 1270.640625 22.054688 1271.195312 21.578125 1271.195312 20.894531 C 1271.195312 20.53125 1271.046875 20.269531 1270.800781 20.023438 L 1265.925781 15.335938 C 1265.578125 14.988281 1265.242188 14.871094 1264.894531 14.871094 C 1264.53125 14.871094 1264.210938 14.988281 1263.863281 15.335938 L 1258.972656 20.023438 C 1258.726562 20.269531 1258.582031 20.53125 1258.582031 20.894531 C 1258.582031 21.578125 1259.121094 22.054688 1259.789062 22.054688 C 1260.125 22.054688 1260.472656 21.925781 1260.707031 21.664062 L 1262.742188 19.5 L 1263.644531 18.425781 L 1263.527344 20.589844 L 1263.527344 35.191406 C 1263.527344 35.917969 1264.136719 36.527344 1264.894531 36.527344 Z M 1256.5 48.121094 L 1273.257812 48.121094 C 1276.417969 48.121094 1278.046875 46.496094 1278.046875 43.390625 L 1278.046875 29.125 C 1278.046875 26.019531 1276.417969 24.390625 1273.257812 24.390625 L 1269.332031 24.390625 L 1269.332031 27.28125 L 1273.070312 27.28125 C 1274.394531 27.28125 1275.152344 27.976562 1275.152344 29.371094 L 1275.152344 43.128906 C 1275.152344 44.523438 1274.394531 45.21875 1273.070312 45.21875 L 1256.691406 45.21875 C 1255.351562 45.21875 1254.613281 44.523438 1254.613281 43.128906 L 1254.613281 29.371094 C 1254.613281 27.976562 1255.351562 27.28125 1256.691406 27.28125 L 1260.472656 27.28125 L 1260.472656 24.390625 L 1256.5 24.390625 C 1253.359375 24.390625 1251.71875 26.003906 1251.71875 29.125 L 1251.71875 43.390625 C 1251.71875 46.496094 1253.359375 48.121094 1256.5 48.121094 Z M 1256.5 48.121094"/><path style="stroke:none;fill-rule:nonzero;fill:#b7b7b7;fill-opacity:1;" d="M 1326.3125 44.621094 C 1327.238281 44.621094 1327.988281 43.875 1327.988281 43.023438 L 1327.988281 34.011719 L 1336.941406 34.011719 C 1337.835938 34.011719 1338.601562 33.277344 1338.601562 32.371094 C 1338.601562 31.480469 1337.835938 30.730469 1336.941406 30.730469 L 1327.988281 30.730469 L 1327.988281 21.71875 C 1327.988281 20.855469 1327.238281 20.121094 1326.3125 20.121094 C 1325.402344 20.121094 1324.640625 20.855469 1324.640625 21.71875 L 1324.640625 30.730469 L 1315.683594 30.730469 C 1314.820312 30.730469 1314.027344 31.480469 1314.027344 32.371094 C 1314.027344 33.277344 1314.820312 34.011719 1315.683594 34.011719 L 1324.640625 34.011719 L 1324.640625 43.023438 C 1324.640625 43.875 1325.402344 44.621094 1326.3125 44.621094 Z M 1326.3125 44.621094"/><path style="stroke:none;fill-rule:nonzero;fill:#b7b7b7;fill-opacity:1;" d="M 1380.246094 41.183594 L 1382.71875 41.183594 L 1382.71875 43.375 C 1382.71875 46.480469 1384.367188 48.105469 1387.507812 48.105469 L 1402.265625 48.105469 C 1405.40625 48.105469 1407.050781 46.480469 1407.050781 43.375 L 1407.050781 28.558594 C 1407.050781 25.453125 1405.40625 23.828125 1402.265625 23.828125 L 1399.789062 23.828125 L 1399.789062 21.652344 C 1399.789062 18.546875 1398.148438 16.921875 1395.003906 16.921875 L 1380.246094 16.921875 C 1377.085938 16.921875 1375.457031 18.546875 1375.457031 21.652344 L 1375.457031 36.453125 C 1375.457031 39.574219 1377.085938 41.183594 1380.246094 41.183594 Z M 1380.4375 38.296875 C 1379.097656 38.296875 1378.355469 37.597656 1378.355469 36.191406 L 1378.355469 21.914062 C 1378.355469 20.507812 1379.097656 19.824219 1380.4375 19.824219 L 1394.8125 19.824219 C 1396.140625 19.824219 1396.894531 20.507812 1396.894531 21.914062 L 1396.894531 23.828125 L 1387.507812 23.828125 C 1384.367188 23.828125 1382.71875 25.453125 1382.71875 28.558594 L 1382.71875 38.296875 Z M 1387.695312 45.203125 C 1386.359375 45.203125 1385.632812 44.503906 1385.632812 43.113281 L 1385.632812 28.820312 C 1385.632812 27.425781 1386.359375 26.730469 1387.695312 26.730469 L 1402.078125 26.730469 C 1403.414062 26.730469 1404.15625 27.425781 1404.15625 28.820312 L 1404.15625 43.113281 C 1404.15625 44.503906 1403.414062 45.203125 1402.078125 45.203125 Z M 1387.695312 45.203125"/><g clip-rule="nonzero" clip-path="url(#2fcc5bbecb)"><path style="stroke:none;fill-rule:nonzero;fill:#25334d;fill-opacity:1;" d="M 510.230469 0 L 971.351562 0 L 971.351562 68.511719 L 510.230469 68.511719 Z M 510.230469 0"/></g><g clip-rule="nonzero" clip-path="url(#4e0a45a7f1)"><path style="stroke:none;fill-rule:nonzero;fill:#25334d;fill-opacity:1;" d="M 6.902344 24.65625 C 6.902344 14.957031 6.902344 10.109375 8.796875 6.402344 C 10.464844 3.144531 13.125 0.496094 16.394531 -1.164062 C 20.117188 -3.050781 24.984375 -3.050781 34.722656 -3.050781 L 1418.878906 -3.050781 C 1428.617188 -3.050781 1433.488281 -3.050781 1437.207031 -1.164062 C 1440.480469 0.496094 1443.140625 3.144531 1444.808594 6.402344 C 1446.703125 10.109375 1446.703125 14.957031 1446.703125 24.65625 L 1446.703125 66.21875 L 6.902344 66.21875 Z M 6.902344 24.65625"/></g><path style="stroke:none;fill-rule:nonzero;fill:#b7b7b7;fill-opacity:1;" d="M 500.746094 45.4375 C 501.007812 45.4375 501.394531 45.351562 501.753906 45.148438 C 510.039062 40.621094 512.917969 38.523438 512.917969 33.253906 L 512.917969 22.332031 C 512.917969 20.597656 512.242188 19.976562 510.804688 19.351562 C 509.207031 18.671875 503.839844 16.792969 502.273438 16.257812 C 501.796875 16.097656 501.238281 15.996094 500.746094 15.996094 C 500.257812 15.996094 499.695312 16.128906 499.222656 16.257812 C 497.652344 16.707031 492.285156 18.6875 490.6875 19.351562 C 489.25 19.960938 488.574219 20.597656 488.574219 22.332031 L 488.574219 33.253906 C 488.574219 38.523438 491.464844 40.589844 499.726562 45.148438 C 500.097656 45.351562 500.488281 45.4375 500.746094 45.4375 Z M 501.523438 18.917969 C 503.40625 19.671875 507.511719 21.132812 509.667969 21.898438 C 510.070312 22.058594 510.171875 22.277344 510.171875 22.796875 L 510.171875 32.71875 C 510.171875 36.960938 508.054688 38.101562 501.566406 42.039062 C 501.164062 42.28125 500.960938 42.371094 500.761719 42.371094 L 500.761719 18.761719 C 500.960938 18.761719 501.179688 18.804688 501.523438 18.917969 Z M 501.523438 18.917969"/><g clip-rule="nonzero" clip-path="url(#46d4873d6f)"><path style="stroke:none;fill-rule:nonzero;fill:#3c5175;fill-opacity:1;" d="M 530.308594 23.964844 C 530.308594 18.144531 530.308594 15.234375 531.445312 13.011719 C 532.445312 11.054688 534.042969 9.464844 536.003906 8.46875 C 538.234375 7.339844 541.15625 7.339844 547 7.339844 L 906.605469 7.339844 C 912.449219 7.339844 915.371094 7.339844 917.601562 8.46875 C 919.5625 9.464844 921.160156 11.054688 922.160156 13.011719 C 923.296875 15.234375 923.296875 18.144531 923.296875 23.964844 L 923.296875 39.203125 C 923.296875 45.023438 923.296875 47.929688 922.160156 50.15625 C 921.160156 52.109375 919.5625 53.699219 917.601562 54.695312 C 915.371094 55.828125 912.449219 55.828125 906.605469 55.828125 L 547 55.828125 C 541.15625 55.828125 538.234375 55.828125 536.003906 54.695312 C 534.042969 53.699219 532.445312 52.109375 531.445312 50.15625 C 530.308594 47.929688 530.308594 45.023438 530.308594 39.203125 Z M 530.308594 23.964844"/></g><path style="stroke:none;fill-rule:nonzero;fill:#ffffff;fill-opacity:1;" d="M 561.359375 19.585938 C 557.765625 19.585938 554.839844 22.496094 554.839844 26.078125 L 554.839844 29.976562 L 553.535156 29.976562 C 552.097656 29.976562 550.925781 31.140625 550.925781 32.574219 L 550.925781 42.964844 C 550.925781 44.394531 552.097656 45.5625 553.535156 45.5625 L 569.183594 45.5625 C 570.621094 45.5625 571.792969 44.394531 571.792969 42.964844 L 571.792969 32.574219 C 571.792969 31.140625 570.621094 29.976562 569.183594 29.976562 L 567.882812 29.976562 L 567.882812 26.078125 C 567.882812 22.496094 564.953125 19.585938 561.359375 19.585938 Z M 569.183594 32.574219 L 569.1875 42.964844 L 553.535156 42.964844 L 553.535156 32.574219 Z M 557.445312 29.976562 L 557.445312 26.078125 C 557.445312 23.929688 559.203125 22.183594 561.359375 22.183594 C 563.515625 22.183594 565.273438 23.929688 565.273438 26.078125 L 565.273438 29.976562 Z M 557.445312 29.976562"/><g clip-rule="nonzero" clip-path="url(#e8237a2ba1)"><path style="stroke:none;fill-rule:nonzero;fill:#25334d;fill-opacity:1;" d="M -12.773438 24.65625 C -12.773438 14.957031 -12.773438 10.109375 -10.878906 6.402344 C -9.210938 3.144531 -6.550781 0.496094 -3.277344 -1.164062 C 0.441406 -3.050781 5.3125 -3.050781 15.050781 -3.050781 L 1399.207031 -3.050781 C 1408.945312 -3.050781 1413.8125 -3.050781 1417.535156 -1.164062 C 1420.808594 0.496094 1423.46875 3.144531 1425.132812 6.402344 C 1427.03125 10.109375 1427.03125 14.957031 1427.03125 24.65625 L 1427.03125 66.21875 L -12.773438 66.21875 Z M -12.773438 24.65625"/></g><g clip-rule="nonzero" clip-path="url(#c3af61a620)"><path style="stroke:none;fill-rule:nonzero;fill:#3c5175;fill-opacity:1;" d="M 510.632812 23.964844 C 510.632812 18.144531 510.632812 15.234375 511.769531 13.011719 C 512.769531 11.054688 514.367188 9.464844 516.328125 8.46875 C 518.5625 7.339844 521.484375 7.339844 527.328125 7.339844 L 886.929688 7.339844 C 892.773438 7.339844 895.695312 7.339844 897.925781 8.46875 C 899.890625 9.464844 901.484375 11.054688 902.484375 13.011719 C 903.625 15.234375 903.625 18.144531 903.625 23.964844 L 903.625 39.203125 C 903.625 45.023438 903.625 47.929688 902.484375 50.15625 C 901.484375 52.109375 899.890625 53.699219 897.925781 54.695312 C 895.695312 55.828125 892.773438 55.828125 886.929688 55.828125 L 527.328125 55.828125 C 521.484375 55.828125 518.5625 55.828125 516.328125 54.695312 C 514.367188 53.699219 512.769531 52.109375 511.769531 50.15625 C 510.632812 47.929688 510.632812 45.023438 510.632812 39.203125 Z M 510.632812 23.964844"/></g><path style="stroke:none;fill-rule:nonzero;fill:#e3e3e3;fill-opacity:1;" d="M 882.460938 31.121094 C 882.757812 31.121094 882.988281 31.027344 883.171875 30.835938 L 887.351562 26.644531 C 887.574219 26.421875 887.679688 26.179688 887.679688 25.894531 C 887.679688 25.621094 887.566406 25.355469 887.351562 25.152344 L 883.171875 20.921875 C 882.988281 20.71875 882.757812 20.617188 882.460938 20.617188 C 881.910156 20.617188 881.472656 21.074219 881.472656 21.632812 C 881.472656 21.90625 881.574219 22.128906 881.746094 22.320312 L 884.183594 24.695312 C 883.703125 24.625 883.214844 24.585938 882.726562 24.585938 C 877.683594 24.585938 873.648438 28.601562 873.648438 33.636719 C 873.648438 38.667969 877.714844 42.71875 882.757812 42.71875 C 887.808594 42.71875 891.867188 38.667969 891.867188 33.636719 C 891.867188 33.027344 891.4375 32.589844 890.824219 32.589844 C 890.234375 32.589844 889.835938 33.027344 889.835938 33.636719 C 889.835938 37.550781 886.691406 40.699219 882.757812 40.699219 C 878.832031 40.699219 875.675781 37.550781 875.675781 33.636719 C 875.675781 29.6875 878.800781 26.5625 882.726562 26.5625 C 883.386719 26.5625 884 26.613281 884.539062 26.707031 L 881.757812 29.445312 C 881.574219 29.628906 881.472656 29.851562 881.472656 30.125 C 881.472656 30.683594 881.910156 31.121094 882.460938 31.121094 Z M 882.460938 31.121094"/><g clip-rule="nonzero" clip-path="url(#ebcc994ea5)"><path style="stroke:none;fill-rule:nonzero;fill:#3c5175;fill-opacity:1;" d="M 579.984375 7.546875 L 861.855469 7.546875 L 861.855469 56.039062 L 579.984375 56.039062 Z M 579.984375 7.546875"/></g><g style="fill:#ffffff;fill-opacity:1;"><g transform="translate(614.160079, 37.897607)"><path style="stroke:none" d="M 4.46875 -0.828125 C 5.21875 -0.828125 5.78125 -0.976562 6.15625 -1.28125 C 6.539062 -1.582031 6.734375 -1.984375 6.734375 -2.484375 C 6.734375 -3.097656 6.539062 -3.507812 6.15625 -3.71875 C 5.769531 -3.9375 5.132812 -4.085938 4.25 -4.171875 C 3.4375 -4.234375 2.796875 -4.367188 2.328125 -4.578125 C 1.867188 -4.796875 1.546875 -5.070312 1.359375 -5.40625 C 1.179688 -5.738281 1.09375 -6.128906 1.09375 -6.578125 L 1.09375 -6.6875 C 1.09375 -7.476562 1.390625 -8.101562 1.984375 -8.5625 C 2.578125 -9.03125 3.40625 -9.265625 4.46875 -9.265625 C 5.300781 -9.265625 5.960938 -9.132812 6.453125 -8.875 C 6.953125 -8.613281 7.3125 -8.253906 7.53125 -7.796875 C 7.757812 -7.335938 7.875 -6.8125 7.875 -6.21875 L 7.875 -6.15625 L 6.6875 -6.15625 C 6.6875 -6.800781 6.523438 -7.3125 6.203125 -7.6875 C 5.890625 -8.070312 5.3125 -8.265625 4.46875 -8.265625 C 3.78125 -8.265625 3.242188 -8.125 2.859375 -7.84375 C 2.484375 -7.570312 2.296875 -7.1875 2.296875 -6.6875 C 2.296875 -6.375 2.359375 -6.101562 2.484375 -5.875 C 2.617188 -5.65625 2.859375 -5.476562 3.203125 -5.34375 C 3.554688 -5.21875 4.0625 -5.128906 4.71875 -5.078125 C 5.851562 -4.984375 6.675781 -4.75 7.1875 -4.375 C 7.707031 -4.007812 7.96875 -3.410156 7.96875 -2.578125 L 7.96875 -2.484375 C 7.96875 -1.691406 7.664062 -1.046875 7.0625 -0.546875 C 6.457031 -0.0546875 5.59375 0.1875 4.46875 0.1875 C 3.613281 0.1875 2.925781 0.0390625 2.40625 -0.25 C 1.894531 -0.539062 1.53125 -0.90625 1.3125 -1.34375 C 1.09375 -1.789062 0.984375 -2.242188 0.984375 -2.703125 L 0.984375 -2.78125 L 2.171875 -2.78125 C 2.171875 -2.445312 2.238281 -2.128906 2.375 -1.828125 C 2.507812 -1.535156 2.742188 -1.296875 3.078125 -1.109375 C 3.410156 -0.921875 3.875 -0.828125 4.46875 -0.828125 Z M 4.46875 -0.828125"/></g></g><g style="fill:#ffffff;fill-opacity:1;"><g transform="translate(623.102824, 37.897607)"><path style="stroke:none" d="M 2.328125 -13.71875 L 2.328125 -7.984375 C 2.609375 -8.347656 2.984375 -8.648438 3.453125 -8.890625 C 3.929688 -9.140625 4.53125 -9.265625 5.25 -9.265625 C 6.144531 -9.265625 6.828125 -8.988281 7.296875 -8.4375 C 7.765625 -7.894531 8 -7.203125 8 -6.359375 L 8 0 L 6.8125 0 L 6.8125 -6.1875 C 6.8125 -6.875 6.628906 -7.378906 6.265625 -7.703125 C 5.910156 -8.023438 5.429688 -8.1875 4.828125 -8.1875 C 4.359375 -8.1875 3.960938 -8.113281 3.640625 -7.96875 C 3.316406 -7.820312 3.046875 -7.640625 2.828125 -7.421875 C 2.617188 -7.203125 2.453125 -6.988281 2.328125 -6.78125 L 2.328125 0 L 1.125 0 L 1.125 -13.71875 Z M 2.328125 -13.71875"/></g></g><g style="fill:#ffffff;fill-opacity:1;"><g transform="translate(632.148357, 37.897607)"><path style="stroke:none" d="M 4.734375 -9.265625 C 4.785156 -9.265625 4.835938 -9.257812 4.890625 -9.25 C 4.941406 -9.25 4.972656 -9.25 4.984375 -9.25 L 4.984375 -8.109375 L 4.75 -8.109375 C 4.289062 -8.109375 3.90625 -8.035156 3.59375 -7.890625 C 3.28125 -7.742188 3.019531 -7.566406 2.8125 -7.359375 C 2.613281 -7.148438 2.453125 -6.941406 2.328125 -6.734375 L 2.328125 0 L 1.125 0 L 1.125 -6.515625 L 1.03125 -9.078125 L 2.015625 -9.078125 L 2.1875 -7.890625 C 2.425781 -8.265625 2.757812 -8.585938 3.1875 -8.859375 C 3.613281 -9.128906 4.128906 -9.265625 4.734375 -9.265625 Z M 4.734375 -9.265625"/></g></g><g style="fill:#ffffff;fill-opacity:1;"><g transform="translate(637.4419, 37.897607)"><path style="stroke:none" d="M 8.484375 -4.046875 L 2.0625 -4.046875 C 2.082031 -3.046875 2.3125 -2.257812 2.75 -1.6875 C 3.1875 -1.113281 3.859375 -0.828125 4.765625 -0.828125 C 5.367188 -0.828125 5.859375 -0.929688 6.234375 -1.140625 C 6.617188 -1.347656 6.898438 -1.613281 7.078125 -1.9375 C 7.253906 -2.269531 7.34375 -2.59375 7.34375 -2.90625 L 8.484375 -2.90625 L 8.484375 -2.84375 C 8.484375 -2.375 8.351562 -1.90625 8.09375 -1.4375 C 7.832031 -0.96875 7.425781 -0.578125 6.875 -0.265625 C 6.320312 0.0351562 5.617188 0.1875 4.765625 0.1875 C 3.847656 0.1875 3.097656 -0.015625 2.515625 -0.421875 C 1.941406 -0.828125 1.519531 -1.375 1.25 -2.0625 C 0.976562 -2.757812 0.84375 -3.523438 0.84375 -4.359375 L 0.84375 -4.734375 C 0.84375 -5.578125 0.972656 -6.34375 1.234375 -7.03125 C 1.503906 -7.71875 1.925781 -8.257812 2.5 -8.65625 C 3.070312 -9.0625 3.796875 -9.265625 4.671875 -9.265625 C 5.566406 -9.265625 6.296875 -9.0625 6.859375 -8.65625 C 7.421875 -8.257812 7.832031 -7.71875 8.09375 -7.03125 C 8.351562 -6.34375 8.484375 -5.578125 8.484375 -4.734375 Z M 4.65625 -8.265625 C 3.800781 -8.265625 3.160156 -7.972656 2.734375 -7.390625 C 2.304688 -6.804688 2.082031 -6.023438 2.0625 -5.046875 L 7.265625 -5.046875 C 7.234375 -6.023438 7.007812 -6.804688 6.59375 -7.390625 C 6.175781 -7.972656 5.53125 -8.265625 4.65625 -8.265625 Z M 4.65625 -8.265625"/></g></g><g style="fill:#ffffff;fill-opacity:1;"><g transform="translate(646.384508, 37.897607)"><path style="stroke:none" d="M 4.265625 -1.65625 L 6.875 -9.078125 L 8.15625 -9.078125 L 4.90625 -0.34375 L 3.609375 3.421875 L 2.234375 3.421875 L 3.65625 -0.34375 L 0.390625 -9.078125 L 1.6875 -9.078125 Z M 4.265625 -1.65625"/></g></g><g style="fill:#ffffff;fill-opacity:1;"><g transform="translate(654.299214, 37.897607)"><path style="stroke:none" d="M 6.78125 0 L 6.59375 -1.265625 C 6.300781 -0.878906 5.890625 -0.539062 5.359375 -0.25 C 4.835938 0.0390625 4.179688 0.1875 3.390625 0.1875 C 2.554688 0.1875 1.910156 -0.0390625 1.453125 -0.5 C 0.992188 -0.96875 0.765625 -1.566406 0.765625 -2.296875 L 0.765625 -2.46875 C 0.765625 -3.132812 0.910156 -3.648438 1.203125 -4.015625 C 1.492188 -4.390625 1.863281 -4.664062 2.3125 -4.84375 C 2.769531 -5.03125 3.242188 -5.160156 3.734375 -5.234375 L 6.484375 -5.65625 L 6.484375 -5.890625 C 6.484375 -6.671875 6.332031 -7.257812 6.03125 -7.65625 C 5.738281 -8.0625 5.1875 -8.265625 4.375 -8.265625 C 3.800781 -8.265625 3.363281 -8.160156 3.0625 -7.953125 C 2.757812 -7.753906 2.550781 -7.492188 2.4375 -7.171875 C 2.320312 -6.847656 2.265625 -6.484375 2.265625 -6.078125 L 1.109375 -6.078125 L 1.109375 -6.234375 C 1.109375 -6.578125 1.15625 -6.925781 1.25 -7.28125 C 1.34375 -7.632812 1.507812 -7.960938 1.75 -8.265625 C 1.988281 -8.566406 2.320312 -8.804688 2.75 -8.984375 C 3.175781 -9.171875 3.722656 -9.265625 4.390625 -9.265625 C 5.234375 -9.265625 5.890625 -9.125 6.359375 -8.84375 C 6.835938 -8.5625 7.175781 -8.164062 7.375 -7.65625 C 7.570312 -7.15625 7.671875 -6.566406 7.671875 -5.890625 L 7.671875 -2.578125 L 7.78125 0 Z M 3.703125 -0.859375 C 4.265625 -0.859375 4.726562 -0.941406 5.09375 -1.109375 C 5.46875 -1.273438 5.765625 -1.472656 5.984375 -1.703125 C 6.210938 -1.929688 6.378906 -2.128906 6.484375 -2.296875 L 6.484375 -4.78125 L 3.84375 -4.359375 C 3.257812 -4.253906 2.800781 -4.054688 2.46875 -3.765625 C 2.132812 -3.472656 1.96875 -3.066406 1.96875 -2.546875 L 1.96875 -2.40625 C 1.96875 -2 2.101562 -1.640625 2.375 -1.328125 C 2.65625 -1.015625 3.097656 -0.859375 3.703125 -0.859375 Z M 3.703125 -0.859375"/></g></g><g style="fill:#ffffff;fill-opacity:1;"><g transform="translate(663.070644, 37.897607)"><path style="stroke:none" d="M 4.90625 0.1875 C 4.269531 0.1875 3.738281 0.0703125 3.3125 -0.15625 C 2.894531 -0.394531 2.566406 -0.6875 2.328125 -1.03125 L 2.328125 3.421875 L 1.125 3.421875 L 1.125 -6.515625 L 1.03125 -9.078125 L 2.015625 -9.078125 L 2.1875 -7.84375 C 2.425781 -8.238281 2.765625 -8.570312 3.203125 -8.84375 C 3.640625 -9.125 4.207031 -9.265625 4.90625 -9.265625 C 5.738281 -9.265625 6.40625 -9.0625 6.90625 -8.65625 C 7.414062 -8.257812 7.785156 -7.71875 8.015625 -7.03125 C 8.253906 -6.351562 8.375 -5.59375 8.375 -4.75 L 8.375 -4.34375 C 8.375 -3.5 8.253906 -2.734375 8.015625 -2.046875 C 7.785156 -1.367188 7.414062 -0.828125 6.90625 -0.421875 C 6.40625 -0.015625 5.738281 0.1875 4.90625 0.1875 Z M 2.328125 -6.78125 L 2.328125 -2.296875 C 2.453125 -2.097656 2.613281 -1.890625 2.8125 -1.671875 C 3.019531 -1.453125 3.269531 -1.265625 3.5625 -1.109375 C 3.863281 -0.960938 4.21875 -0.890625 4.625 -0.890625 C 5.476562 -0.890625 6.109375 -1.203125 6.515625 -1.828125 C 6.929688 -2.453125 7.140625 -3.289062 7.140625 -4.34375 L 7.140625 -4.75 C 7.140625 -5.800781 6.929688 -6.632812 6.515625 -7.25 C 6.109375 -7.875 5.476562 -8.1875 4.625 -8.1875 C 4.21875 -8.1875 3.863281 -8.113281 3.5625 -7.96875 C 3.269531 -7.820312 3.019531 -7.640625 2.8125 -7.421875 C 2.613281 -7.203125 2.453125 -6.988281 2.328125 -6.78125 Z M 2.328125 -6.78125"/></g></g><g style="fill:#ffffff;fill-opacity:1;"><g transform="translate(672.270367, 37.897607)"><path style="stroke:none" d="M 6.78125 0 L 6.59375 -1.265625 C 6.300781 -0.878906 5.890625 -0.539062 5.359375 -0.25 C 4.835938 0.0390625 4.179688 0.1875 3.390625 0.1875 C 2.554688 0.1875 1.910156 -0.0390625 1.453125 -0.5 C 0.992188 -0.96875 0.765625 -1.566406 0.765625 -2.296875 L 0.765625 -2.46875 C 0.765625 -3.132812 0.910156 -3.648438 1.203125 -4.015625 C 1.492188 -4.390625 1.863281 -4.664062 2.3125 -4.84375 C 2.769531 -5.03125 3.242188 -5.160156 3.734375 -5.234375 L 6.484375 -5.65625 L 6.484375 -5.890625 C 6.484375 -6.671875 6.332031 -7.257812 6.03125 -7.65625 C 5.738281 -8.0625 5.1875 -8.265625 4.375 -8.265625 C 3.800781 -8.265625 3.363281 -8.160156 3.0625 -7.953125 C 2.757812 -7.753906 2.550781 -7.492188 2.4375 -7.171875 C 2.320312 -6.847656 2.265625 -6.484375 2.265625 -6.078125 L 1.109375 -6.078125 L 1.109375 -6.234375 C 1.109375 -6.578125 1.15625 -6.925781 1.25 -7.28125 C 1.34375 -7.632812 1.507812 -7.960938 1.75 -8.265625 C 1.988281 -8.566406 2.320312 -8.804688 2.75 -8.984375 C 3.175781 -9.171875 3.722656 -9.265625 4.390625 -9.265625 C 5.234375 -9.265625 5.890625 -9.125 6.359375 -8.84375 C 6.835938 -8.5625 7.175781 -8.164062 7.375 -7.65625 C 7.570312 -7.15625 7.671875 -6.566406 7.671875 -5.890625 L 7.671875 -2.578125 L 7.78125 0 Z M 3.703125 -0.859375 C 4.265625 -0.859375 4.726562 -0.941406 5.09375 -1.109375 C 5.46875 -1.273438 5.765625 -1.472656 5.984375 -1.703125 C 6.210938 -1.929688 6.378906 -2.128906 6.484375 -2.296875 L 6.484375 -4.78125 L 3.84375 -4.359375 C 3.257812 -4.253906 2.800781 -4.054688 2.46875 -3.765625 C 2.132812 -3.472656 1.96875 -3.066406 1.96875 -2.546875 L 1.96875 -2.40625 C 1.96875 -2 2.101562 -1.640625 2.375 -1.328125 C 2.65625 -1.015625 3.097656 -0.859375 3.703125 -0.859375 Z M 3.703125 -0.859375"/></g></g><g style="fill:#ffffff;fill-opacity:1;"><g transform="translate(680.836132, 37.897607)"><path style="stroke:none" d="M 3.171875 -9.078125 L 6.0625 -9.078125 L 6.0625 -8 L 3.171875 -8 L 3.171875 -2.671875 C 3.171875 -1.953125 3.316406 -1.472656 3.609375 -1.234375 C 3.910156 -1.003906 4.347656 -0.890625 4.921875 -0.890625 C 5.109375 -0.890625 5.300781 -0.90625 5.5 -0.9375 C 5.695312 -0.976562 5.828125 -1.015625 5.890625 -1.046875 L 5.890625 0 C 5.828125 0.0195312 5.691406 0.0546875 5.484375 0.109375 C 5.273438 0.160156 4.988281 0.1875 4.625 0.1875 C 3.863281 0.1875 3.226562 -0.015625 2.71875 -0.421875 C 2.21875 -0.835938 1.96875 -1.535156 1.96875 -2.515625 L 1.96875 -8 L 0.53125 -8 L 0.53125 -9.078125 L 1.96875 -9.078125 L 1.96875 -11.65625 L 3.171875 -11.65625 Z M 3.171875 -9.078125"/></g></g><g style="fill:#ffffff;fill-opacity:1;"><g transform="translate(687.688808, 37.897607)"><path style="stroke:none" d="M 1.25 0 L 1.25 -9.078125 L 2.453125 -9.078125 L 2.453125 0 Z M 2.625 -12.765625 L 2.625 -11.234375 L 1.078125 -11.234375 L 1.078125 -12.765625 Z M 2.625 -12.765625"/></g></g><g style="fill:#ffffff;fill-opacity:1;"><g transform="translate(691.38925, 37.897607)"><path style="stroke:none" d="M 1.25 0 L 1.25 -13.71875 L 2.453125 -13.71875 L 2.453125 0 Z M 1.25 0"/></g></g><g style="fill:#ffffff;fill-opacity:1;"><g transform="translate(695.089693, 37.897607)"><path style="stroke:none" d="M 4.109375 -1.109375 L 9.328125 -1.109375 L 9.328125 0 L 0.953125 0 L 0.953125 -0.765625 L 6.734375 -6.90625 C 7.242188 -7.445312 7.597656 -7.910156 7.796875 -8.296875 C 8.003906 -8.691406 8.109375 -9.140625 8.109375 -9.640625 L 8.109375 -9.796875 C 8.109375 -10.617188 7.835938 -11.269531 7.296875 -11.75 C 6.765625 -12.226562 6.0625 -12.46875 5.1875 -12.46875 L 5.09375 -12.46875 C 4.125 -12.46875 3.394531 -12.1875 2.90625 -11.625 C 2.414062 -11.070312 2.171875 -10.164062 2.171875 -8.90625 L 0.953125 -8.90625 L 0.953125 -9.328125 C 0.953125 -10.671875 1.285156 -11.710938 1.953125 -12.453125 C 2.628906 -13.191406 3.691406 -13.5625 5.140625 -13.5625 C 6.503906 -13.5625 7.539062 -13.226562 8.25 -12.5625 C 8.96875 -11.894531 9.328125 -11.039062 9.328125 -10 L 9.328125 -9.78125 C 9.328125 -9.332031 9.28125 -8.925781 9.1875 -8.5625 C 9.09375 -8.195312 8.929688 -7.835938 8.703125 -7.484375 C 8.472656 -7.140625 8.160156 -6.757812 7.765625 -6.34375 L 2.828125 -1.09375 Z M 4.109375 -1.109375"/></g></g><g style="fill:#ffffff;fill-opacity:1;"><g transform="translate(705.368707, 37.897607)"><path style="stroke:none" d="M 9.40625 0 L 1.21875 0 L 1.21875 -1.109375 L 4.71875 -1.109375 L 4.71875 -11.796875 L 1.5625 -9.65625 L 0.9375 -10.59375 L 5.140625 -13.4375 L 5.9375 -13.4375 L 5.9375 -1.109375 L 9.40625 -1.109375 Z M 9.40625 0"/></g></g><g style="fill:#ffffff;fill-opacity:1;"><g transform="translate(715.647721, 37.897607)"><path style="stroke:none" d="M 7.5 0 L 6.296875 0 L 6.296875 -3.546875 L 0.5625 -3.546875 L 0.5625 -4.375 L 6.328125 -13.375 L 7.5 -13.375 L 7.5 -4.65625 L 9.71875 -4.65625 L 9.71875 -3.546875 L 7.5 -3.546875 Z M 6.3125 -11.28125 L 2.078125 -4.640625 L 3.546875 -4.65625 L 6.296875 -4.65625 L 6.296875 -9.53125 Z M 6.3125 -11.28125"/></g></g><g style="fill:#ffffff;fill-opacity:1;"><g transform="translate(725.926735, 37.897607)"><path style="stroke:none" d="M 4.109375 -1.109375 L 9.328125 -1.109375 L 9.328125 0 L 0.953125 0 L 0.953125 -0.765625 L 6.734375 -6.90625 C 7.242188 -7.445312 7.597656 -7.910156 7.796875 -8.296875 C 8.003906 -8.691406 8.109375 -9.140625 8.109375 -9.640625 L 8.109375 -9.796875 C 8.109375 -10.617188 7.835938 -11.269531 7.296875 -11.75 C 6.765625 -12.226562 6.0625 -12.46875 5.1875 -12.46875 L 5.09375 -12.46875 C 4.125 -12.46875 3.394531 -12.1875 2.90625 -11.625 C 2.414062 -11.070312 2.171875 -10.164062 2.171875 -8.90625 L 0.953125 -8.90625 L 0.953125 -9.328125 C 0.953125 -10.671875 1.285156 -11.710938 1.953125 -12.453125 C 2.628906 -13.191406 3.691406 -13.5625 5.140625 -13.5625 C 6.503906 -13.5625 7.539062 -13.226562 8.25 -12.5625 C 8.96875 -11.894531 9.328125 -11.039062 9.328125 -10 L 9.328125 -9.78125 C 9.328125 -9.332031 9.28125 -8.925781 9.1875 -8.5625 C 9.09375 -8.195312 8.929688 -7.835938 8.703125 -7.484375 C 8.472656 -7.140625 8.160156 -6.757812 7.765625 -6.34375 L 2.828125 -1.09375 Z M 4.109375 -1.109375"/></g></g><g style="fill:#ffffff;fill-opacity:1;"><g transform="translate(736.205749, 37.897607)"><path style="stroke:none" d="M 8.59375 2.671875 L 8.6875 2.671875 C 9.726562 2.671875 10.710938 2.53125 11.640625 2.25 C 12.578125 1.96875 13.472656 1.515625 14.328125 0.890625 L 14.875 1.625 C 13.875 2.414062 12.832031 2.941406 11.75 3.203125 C 10.675781 3.472656 9.640625 3.609375 8.640625 3.609375 C 7.066406 3.609375 5.671875 3.28125 4.453125 2.625 C 3.234375 1.976562 2.28125 1.039062 1.59375 -0.1875 C 0.90625 -1.425781 0.5625 -2.90625 0.5625 -4.625 L 0.5625 -5.3125 C 0.5625 -7.050781 0.898438 -8.535156 1.578125 -9.765625 C 2.253906 -10.992188 3.191406 -11.929688 4.390625 -12.578125 C 5.585938 -13.234375 6.972656 -13.5625 8.546875 -13.5625 C 9.546875 -13.5625 10.488281 -13.421875 11.375 -13.140625 C 12.257812 -12.859375 13.039062 -12.429688 13.71875 -11.859375 C 14.394531 -11.285156 14.925781 -10.566406 15.3125 -9.703125 C 15.707031 -8.847656 15.90625 -7.832031 15.90625 -6.65625 L 15.90625 -6.140625 C 15.90625 -5.109375 15.789062 -4.257812 15.5625 -3.59375 C 15.34375 -2.9375 15.023438 -2.414062 14.609375 -2.03125 C 14.203125 -1.65625 13.71875 -1.394531 13.15625 -1.25 C 12.601562 -1.101562 11.992188 -1.03125 11.328125 -1.03125 L 10.546875 -1.03125 L 10.375 -2.28125 C 10.144531 -1.894531 9.8125 -1.554688 9.375 -1.265625 C 8.9375 -0.984375 8.382812 -0.84375 7.71875 -0.84375 C 6.925781 -0.84375 6.28125 -1.03125 5.78125 -1.40625 C 5.289062 -1.78125 4.929688 -2.273438 4.703125 -2.890625 C 4.472656 -3.503906 4.359375 -4.15625 4.359375 -4.84375 L 4.359375 -5.265625 C 4.359375 -5.960938 4.472656 -6.613281 4.703125 -7.21875 C 4.929688 -7.832031 5.289062 -8.328125 5.78125 -8.703125 C 6.28125 -9.078125 6.925781 -9.265625 7.71875 -9.265625 C 8.382812 -9.265625 8.9375 -9.125 9.375 -8.84375 C 9.8125 -8.5625 10.144531 -8.222656 10.375 -7.828125 L 10.546875 -9.078125 L 11.46875 -9.078125 L 11.359375 -6.5625 L 11.359375 -1.953125 C 11.898438 -1.960938 12.382812 -2.023438 12.8125 -2.140625 C 13.25 -2.253906 13.617188 -2.457031 13.921875 -2.75 C 14.234375 -3.039062 14.472656 -3.457031 14.640625 -4 C 14.804688 -4.539062 14.890625 -5.253906 14.890625 -6.140625 L 14.890625 -6.65625 C 14.890625 -7.726562 14.71875 -8.640625 14.375 -9.390625 C 14.03125 -10.148438 13.5625 -10.765625 12.96875 -11.234375 C 12.375 -11.710938 11.703125 -12.0625 10.953125 -12.28125 C 10.203125 -12.5 9.421875 -12.609375 8.609375 -12.609375 L 8.5 -12.609375 C 7.144531 -12.609375 5.941406 -12.320312 4.890625 -11.75 C 3.835938 -11.175781 3.015625 -10.34375 2.421875 -9.25 C 1.835938 -8.164062 1.546875 -6.851562 1.546875 -5.3125 L 1.546875 -4.625 C 1.546875 -3.050781 1.84375 -1.71875 2.4375 -0.625 C 3.039062 0.457031 3.875 1.273438 4.9375 1.828125 C 6 2.390625 7.21875 2.671875 8.59375 2.671875 Z M 7.96875 -1.875 C 8.351562 -1.875 8.691406 -1.945312 8.984375 -2.09375 C 9.273438 -2.238281 9.523438 -2.414062 9.734375 -2.625 C 9.953125 -2.84375 10.125 -3.046875 10.25 -3.234375 L 10.25 -6.875 C 10.125 -7.070312 9.953125 -7.273438 9.734375 -7.484375 C 9.523438 -7.691406 9.273438 -7.867188 8.984375 -8.015625 C 8.691406 -8.171875 8.351562 -8.25 7.96875 -8.25 C 7.125 -8.25 6.503906 -7.960938 6.109375 -7.390625 C 5.722656 -6.816406 5.53125 -6.109375 5.53125 -5.265625 L 5.53125 -4.84375 C 5.53125 -4 5.722656 -3.289062 6.109375 -2.71875 C 6.503906 -2.15625 7.125 -1.875 7.96875 -1.875 Z M 7.96875 -1.875"/></g></g><g style="fill:#ffffff;fill-opacity:1;"><g transform="translate(752.669317, 37.897607)"><path style="stroke:none" d="M 6.890625 0.015625 L 6.890625 -1.65625 C 6.640625 -1.3125 6.304688 -1.023438 5.890625 -0.796875 C 5.484375 -0.578125 4.957031 -0.46875 4.3125 -0.46875 C 3.488281 -0.46875 2.820312 -0.65625 2.3125 -1.03125 C 1.800781 -1.414062 1.425781 -1.925781 1.1875 -2.5625 C 0.957031 -3.207031 0.84375 -3.910156 0.84375 -4.671875 L 0.84375 -5.0625 C 0.84375 -5.820312 0.957031 -6.519531 1.1875 -7.15625 C 1.425781 -7.789062 1.800781 -8.300781 2.3125 -8.6875 C 2.820312 -9.070312 3.488281 -9.265625 4.3125 -9.265625 C 5.007812 -9.265625 5.578125 -9.128906 6.015625 -8.859375 C 6.453125 -8.585938 6.789062 -8.257812 7.03125 -7.875 L 7.203125 -9.078125 L 8.1875 -9.078125 L 8.09375 -6.515625 L 8.09375 0.078125 C 8.09375 0.753906 7.972656 1.359375 7.734375 1.890625 C 7.503906 2.429688 7.128906 2.851562 6.609375 3.15625 C 6.085938 3.457031 5.394531 3.609375 4.53125 3.609375 C 3.65625 3.609375 2.960938 3.453125 2.453125 3.140625 C 1.941406 2.835938 1.570312 2.425781 1.34375 1.90625 C 1.125 1.394531 1.015625 0.832031 1.015625 0.21875 L 1.015625 0 L 2.15625 0 C 2.15625 0.851562 2.332031 1.492188 2.6875 1.921875 C 3.050781 2.359375 3.660156 2.578125 4.515625 2.578125 C 5.390625 2.578125 6.003906 2.359375 6.359375 1.921875 C 6.710938 1.484375 6.890625 0.847656 6.890625 0.015625 Z M 6.890625 -6.78125 C 6.765625 -6.988281 6.601562 -7.203125 6.40625 -7.421875 C 6.207031 -7.640625 5.957031 -7.820312 5.65625 -7.96875 C 5.351562 -8.113281 4.992188 -8.1875 4.578125 -8.1875 C 3.734375 -8.1875 3.101562 -7.898438 2.6875 -7.328125 C 2.269531 -6.753906 2.0625 -6 2.0625 -5.0625 L 2.0625 -4.671875 C 2.0625 -3.722656 2.269531 -2.960938 2.6875 -2.390625 C 3.101562 -1.828125 3.734375 -1.546875 4.578125 -1.546875 C 4.992188 -1.546875 5.351562 -1.617188 5.65625 -1.765625 C 5.957031 -1.910156 6.207031 -2.09375 6.40625 -2.3125 C 6.601562 -2.53125 6.765625 -2.738281 6.890625 -2.9375 Z M 6.890625 -6.78125"/></g></g><g style="fill:#ffffff;fill-opacity:1;"><g transform="translate(761.86904, 37.897607)"><path style="stroke:none" d="M 12.75 0 L 11.546875 0 L 11.546875 -6.40625 C 11.546875 -7.101562 11.382812 -7.570312 11.0625 -7.8125 C 10.738281 -8.0625 10.316406 -8.1875 9.796875 -8.1875 C 9.378906 -8.1875 9.023438 -8.113281 8.734375 -7.96875 C 8.441406 -7.820312 8.203125 -7.640625 8.015625 -7.421875 C 7.828125 -7.210938 7.671875 -7.015625 7.546875 -6.828125 L 7.546875 0 L 6.34375 0 L 6.34375 -6.40625 C 6.34375 -7.101562 6.175781 -7.570312 5.84375 -7.8125 C 5.519531 -8.0625 5.101562 -8.1875 4.59375 -8.1875 C 4.164062 -8.1875 3.804688 -8.113281 3.515625 -7.96875 C 3.222656 -7.820312 2.984375 -7.640625 2.796875 -7.421875 C 2.609375 -7.210938 2.453125 -7.015625 2.328125 -6.828125 L 2.328125 0 L 1.125 0 L 1.125 -6.515625 L 1.03125 -9.078125 L 2.015625 -9.078125 L 2.1875 -7.84375 C 2.445312 -8.238281 2.800781 -8.570312 3.25 -8.84375 C 3.707031 -9.125 4.289062 -9.265625 5 -9.265625 C 6.21875 -9.265625 7.003906 -8.765625 7.359375 -7.765625 C 7.597656 -8.171875 7.953125 -8.519531 8.421875 -8.8125 C 8.890625 -9.113281 9.488281 -9.265625 10.21875 -9.265625 C 11.03125 -9.265625 11.65625 -9.03125 12.09375 -8.5625 C 12.53125 -8.101562 12.75 -7.441406 12.75 -6.578125 Z M 12.75 0"/></g></g><g style="fill:#ffffff;fill-opacity:1;"><g transform="translate(775.660056, 37.897607)"><path style="stroke:none" d="M 6.78125 0 L 6.59375 -1.265625 C 6.300781 -0.878906 5.890625 -0.539062 5.359375 -0.25 C 4.835938 0.0390625 4.179688 0.1875 3.390625 0.1875 C 2.554688 0.1875 1.910156 -0.0390625 1.453125 -0.5 C 0.992188 -0.96875 0.765625 -1.566406 0.765625 -2.296875 L 0.765625 -2.46875 C 0.765625 -3.132812 0.910156 -3.648438 1.203125 -4.015625 C 1.492188 -4.390625 1.863281 -4.664062 2.3125 -4.84375 C 2.769531 -5.03125 3.242188 -5.160156 3.734375 -5.234375 L 6.484375 -5.65625 L 6.484375 -5.890625 C 6.484375 -6.671875 6.332031 -7.257812 6.03125 -7.65625 C 5.738281 -8.0625 5.1875 -8.265625 4.375 -8.265625 C 3.800781 -8.265625 3.363281 -8.160156 3.0625 -7.953125 C 2.757812 -7.753906 2.550781 -7.492188 2.4375 -7.171875 C 2.320312 -6.847656 2.265625 -6.484375 2.265625 -6.078125 L 1.109375 -6.078125 L 1.109375 -6.234375 C 1.109375 -6.578125 1.15625 -6.925781 1.25 -7.28125 C 1.34375 -7.632812 1.507812 -7.960938 1.75 -8.265625 C 1.988281 -8.566406 2.320312 -8.804688 2.75 -8.984375 C 3.175781 -9.171875 3.722656 -9.265625 4.390625 -9.265625 C 5.234375 -9.265625 5.890625 -9.125 6.359375 -8.84375 C 6.835938 -8.5625 7.175781 -8.164062 7.375 -7.65625 C 7.570312 -7.15625 7.671875 -6.566406 7.671875 -5.890625 L 7.671875 -2.578125 L 7.78125 0 Z M 3.703125 -0.859375 C 4.265625 -0.859375 4.726562 -0.941406 5.09375 -1.109375 C 5.46875 -1.273438 5.765625 -1.472656 5.984375 -1.703125 C 6.210938 -1.929688 6.378906 -2.128906 6.484375 -2.296875 L 6.484375 -4.78125 L 3.84375 -4.359375 C 3.257812 -4.253906 2.800781 -4.054688 2.46875 -3.765625 C 2.132812 -3.472656 1.96875 -3.066406 1.96875 -2.546875 L 1.96875 -2.40625 C 1.96875 -2 2.101562 -1.640625 2.375 -1.328125 C 2.65625 -1.015625 3.097656 -0.859375 3.703125 -0.859375 Z M 3.703125 -0.859375"/></g></g><g style="fill:#ffffff;fill-opacity:1;"><g transform="translate(784.431485, 37.897607)"><path style="stroke:none" d="M 1.25 0 L 1.25 -9.078125 L 2.453125 -9.078125 L 2.453125 0 Z M 2.625 -12.765625 L 2.625 -11.234375 L 1.078125 -11.234375 L 1.078125 -12.765625 Z M 2.625 -12.765625"/></g></g><g style="fill:#ffffff;fill-opacity:1;"><g transform="translate(788.131928, 37.897607)"><path style="stroke:none" d="M 1.25 0 L 1.25 -13.71875 L 2.453125 -13.71875 L 2.453125 0 Z M 1.25 0"/></g></g><g style="fill:#ffffff;fill-opacity:1;"><g transform="translate(791.83237, 37.897607)"><path style="stroke:none" d="M 2.625 -1.546875 L 2.625 0 L 1.078125 0 L 1.078125 -1.546875 Z M 2.625 -1.546875"/></g></g><g style="fill:#ffffff;fill-opacity:1;"><g transform="translate(795.532812, 37.897607)"><path style="stroke:none" d="M 2.0625 -4.34375 C 2.0625 -3.300781 2.265625 -2.460938 2.671875 -1.828125 C 3.085938 -1.203125 3.742188 -0.890625 4.640625 -0.890625 C 5.210938 -0.890625 5.664062 -0.992188 6 -1.203125 C 6.34375 -1.421875 6.585938 -1.703125 6.734375 -2.046875 C 6.878906 -2.398438 6.953125 -2.769531 6.953125 -3.15625 L 8.109375 -3.15625 L 8.109375 -2.875 C 8.109375 -2.394531 7.988281 -1.921875 7.75 -1.453125 C 7.519531 -0.984375 7.148438 -0.59375 6.640625 -0.28125 C 6.128906 0.03125 5.457031 0.1875 4.625 0.1875 C 3.75 0.1875 3.03125 -0.015625 2.46875 -0.421875 C 1.90625 -0.828125 1.492188 -1.367188 1.234375 -2.046875 C 0.972656 -2.734375 0.84375 -3.5 0.84375 -4.34375 L 0.84375 -4.75 C 0.84375 -5.59375 0.972656 -6.351562 1.234375 -7.03125 C 1.492188 -7.71875 1.90625 -8.257812 2.46875 -8.65625 C 3.03125 -9.0625 3.75 -9.265625 4.625 -9.265625 C 5.457031 -9.265625 6.128906 -9.101562 6.640625 -8.78125 C 7.148438 -8.457031 7.519531 -8.050781 7.75 -7.5625 C 7.988281 -7.082031 8.109375 -6.597656 8.109375 -6.109375 L 8.109375 -5.765625 L 6.953125 -5.765625 C 6.953125 -6.460938 6.769531 -7.039062 6.40625 -7.5 C 6.050781 -7.957031 5.460938 -8.1875 4.640625 -8.1875 C 3.742188 -8.1875 3.085938 -7.875 2.671875 -7.25 C 2.265625 -6.625 2.0625 -5.789062 2.0625 -4.75 Z M 2.0625 -4.34375"/></g></g><g style="fill:#ffffff;fill-opacity:1;"><g transform="translate(804.475556, 37.897607)"><path style="stroke:none" d="M 4.65625 0.1875 C 3.769531 0.1875 3.046875 -0.015625 2.484375 -0.421875 C 1.921875 -0.828125 1.503906 -1.367188 1.234375 -2.046875 C 0.972656 -2.734375 0.84375 -3.5 0.84375 -4.34375 L 0.84375 -4.75 C 0.84375 -5.59375 0.972656 -6.351562 1.234375 -7.03125 C 1.503906 -7.71875 1.921875 -8.257812 2.484375 -8.65625 C 3.046875 -9.0625 3.769531 -9.265625 4.65625 -9.265625 C 5.550781 -9.265625 6.28125 -9.0625 6.84375 -8.65625 C 7.414062 -8.257812 7.832031 -7.71875 8.09375 -7.03125 C 8.351562 -6.351562 8.484375 -5.59375 8.484375 -4.75 L 8.484375 -4.34375 C 8.484375 -3.5 8.351562 -2.734375 8.09375 -2.046875 C 7.832031 -1.367188 7.414062 -0.828125 6.84375 -0.421875 C 6.28125 -0.015625 5.550781 0.1875 4.65625 0.1875 Z M 4.65625 -0.890625 C 5.5625 -0.890625 6.222656 -1.203125 6.640625 -1.828125 C 7.054688 -2.460938 7.265625 -3.300781 7.265625 -4.34375 L 7.265625 -4.75 C 7.265625 -5.789062 7.054688 -6.625 6.640625 -7.25 C 6.222656 -7.875 5.5625 -8.1875 4.65625 -8.1875 C 3.757812 -8.1875 3.101562 -7.875 2.6875 -7.25 C 2.269531 -6.625 2.0625 -5.789062 2.0625 -4.75 L 2.0625 -4.34375 C 2.0625 -3.300781 2.269531 -2.460938 2.6875 -1.828125 C 3.101562 -1.203125 3.757812 -0.890625 4.65625 -0.890625 Z M 4.65625 -0.890625"/></g></g><g style="fill:#ffffff;fill-opacity:1;"><g transform="translate(813.795206, 37.897607)"><path style="stroke:none" d="M 12.75 0 L 11.546875 0 L 11.546875 -6.40625 C 11.546875 -7.101562 11.382812 -7.570312 11.0625 -7.8125 C 10.738281 -8.0625 10.316406 -8.1875 9.796875 -8.1875 C 9.378906 -8.1875 9.023438 -8.113281 8.734375 -7.96875 C 8.441406 -7.820312 8.203125 -7.640625 8.015625 -7.421875 C 7.828125 -7.210938 7.671875 -7.015625 7.546875 -6.828125 L 7.546875 0 L 6.34375 0 L 6.34375 -6.40625 C 6.34375 -7.101562 6.175781 -7.570312 5.84375 -7.8125 C 5.519531 -8.0625 5.101562 -8.1875 4.59375 -8.1875 C 4.164062 -8.1875 3.804688 -8.113281 3.515625 -7.96875 C 3.222656 -7.820312 2.984375 -7.640625 2.796875 -7.421875 C 2.609375 -7.210938 2.453125 -7.015625 2.328125 -6.828125 L 2.328125 0 L 1.125 0 L 1.125 -6.515625 L 1.03125 -9.078125 L 2.015625 -9.078125 L 2.1875 -7.84375 C 2.445312 -8.238281 2.800781 -8.570312 3.25 -8.84375 C 3.707031 -9.125 4.289062 -9.265625 5 -9.265625 C 6.21875 -9.265625 7.003906 -8.765625 7.359375 -7.765625 C 7.597656 -8.171875 7.953125 -8.519531 8.421875 -8.8125 C 8.890625 -9.113281 9.488281 -9.265625 10.21875 -9.265625 C 11.03125 -9.265625 11.65625 -9.03125 12.09375 -8.5625 C 12.53125 -8.101562 12.75 -7.441406 12.75 -6.578125 Z M 12.75 0"/></g></g></g></svg>