<?xml version="1.0" encoding="UTF-8"?>
<svg version="1.1" xmlns="http://www.w3.org/2000/svg" width="185" height="185">
<path d="M0 0 C0.84175781 0.4125 1.68351562 0.825 2.55078125 1.25 C13.64821022 7.17761001 20.23944343 16.57466424 25 28 C25.37511719 28.87914062 25.75023437 29.75828125 26.13671875 30.6640625 C29.53320688 43.78895328 28.24016916 59.90436959 21.4921875 71.6171875 C13.48045061 83.87700814 3.07454484 91.98354333 -10.875 96.4375 C-24.98973541 99.16938427 -39.8807679 96.74439409 -52 89 C-63.9810268 79.98523018 -71.2172921 68.55974652 -73.5 53.7578125 C-75.05623674 39.20051469 -71.62035147 25.72422828 -62.73828125 14.01953125 C-57.50652771 7.93361387 -52.22199939 3.48764256 -45 0 C-44.25234375 -0.41121094 -43.5046875 -0.82242188 -42.734375 -1.24609375 C-30.70132528 -6.85504757 -11.59458246 -6.38600066 0 0 Z M-40 32 C-45.53510217 39.29504971 -46.1339519 47.09794772 -45 56 C-43.71152393 60.66442735 -41.8763342 63.25998446 -38.1875 66.375 C-30.42981361 70.32989894 -23.77995004 71.07305787 -15.5 68.4375 C-8.08738753 65.5192287 -3.8120499 61.39135464 -0.5625 54.125 C2.22141961 46.14684078 1.61887554 39.86082848 -1.8125 32.1640625 C-4.72391189 26.85839741 -9.27584419 25.19797588 -14.80859375 23.5390625 C-24.03806433 21.26871145 -33.5229869 25.3681018 -40 32 Z " fill="#F8AA00" transform="translate(151,46)"/>
<path d="M0 0 C1.97265625 1.3671875 1.97265625 1.3671875 4.59765625 3.5546875 C0.81943288 11.48480468 -3.0488305 19.5454485 -8.40234375 26.5546875 C-9.06234375 26.5546875 -9.72234375 26.5546875 -10.40234375 26.5546875 C-10.40234375 25.8946875 -10.40234375 25.2346875 -10.40234375 24.5546875 C-19.27148288 20.71139388 -27.08978283 18.07244205 -36.53125 21.27734375 C-43.08740076 24.15110243 -47.46676841 28.86732088 -50.27734375 35.4296875 C-52.68008829 42.91128725 -51.74874071 49.21064052 -48.59765625 56.328125 C-45.57080153 61.9663838 -40.94735884 64.78217996 -35.40234375 67.5546875 C-27.33722202 69.97422402 -20.74600366 68.08483913 -13.40234375 64.5546875 C-11.72362897 63.57504754 -10.05352038 62.58006231 -8.40234375 61.5546875 C-6.79761372 64.1168362 -5.19354193 66.67939305 -3.58984375 69.2421875 C-3.13802734 69.96341797 -2.68621094 70.68464844 -2.22070312 71.42773438 C-1.34058432 72.83463962 -0.46527554 74.24456734 0.40478516 75.65771484 C1.40303153 77.245184 2.46757513 78.79070451 3.546875 80.32421875 C4.59765625 82.5546875 4.59765625 82.5546875 4.21484375 84.63671875 C1.87297593 87.41415136 -1.04838928 88.73293078 -4.27734375 90.2421875 C-4.90253906 90.54962891 -5.52773437 90.85707031 -6.171875 91.17382812 C-17.35118959 96.57440611 -33.42812047 96.60698861 -45.21484375 92.9921875 C-57.87768716 87.76508354 -67.18241056 78.58228166 -73.40234375 66.5546875 C-73.81871094 65.80316406 -74.23507813 65.05164063 -74.6640625 64.27734375 C-79.56018926 53.6776588 -79.51735683 37.32130677 -75.83984375 26.3046875 C-74.73046875 23.8984375 -74.73046875 23.8984375 -73.40234375 21.5546875 C-72.62117188 20.14703125 -72.62117188 20.14703125 -71.82421875 18.7109375 C-66.03135159 9.00397091 -59.43756386 2.73656455 -49.40234375 -2.4453125 C-48.63921875 -2.86167969 -47.87609375 -3.27804688 -47.08984375 -3.70703125 C-32.75960291 -10.25209317 -13.22986067 -7.95942837 0 0 Z " fill="#E87109" transform="translate(84.40234375,48.4453125)"/>
<path d="M0 0 C5.33564626 1.77854875 7.34656057 7.28411446 10 12 C10.4434375 12.78117187 10.886875 13.56234375 11.34375 14.3671875 C16.33736781 25.24614058 15.83281982 41.49476726 12.4375 52.8125 C5.74424469 68.96056351 -6.45442607 78.3914814 -22.11328125 84.875 C-34.47980919 88.82351446 -48.93498996 85.98409462 -60.3125 80.625 C-64.35674665 78.50289928 -67.64599369 76.08921634 -71 73 C-68.83220689 68.15690146 -65.31890774 64.91288991 -61.625 61.1875 C-60.95210937 60.48173828 -60.27921875 59.77597656 -59.5859375 59.04882812 C-58.93109375 58.38689453 -58.27625 57.72496094 -57.6015625 57.04296875 C-57.00682129 56.43477295 -56.41208008 55.82657715 -55.79931641 55.19995117 C-54 54 -54 54 -51.90698242 54.26269531 C-50.96302612 54.62766113 -50.96302612 54.62766113 -50 55 C-49.30261719 55.24878906 -48.60523437 55.49757812 -47.88671875 55.75390625 C-47.16097656 56.02074219 -46.43523437 56.28757813 -45.6875 56.5625 C-38.38736449 58.96026809 -32.7433728 58.1553817 -25.65625 55.390625 C-20.06829081 52.46516401 -16.5432845 47.7900255 -14.0625 42.0625 C-11.65109433 34.33093057 -12.7850671 28.43618735 -16.3203125 21.26171875 C-17 19 -17 19 -16.25976562 17.08813477 C-14.89278385 14.82228299 -13.40932663 13.18204991 -11.5234375 11.328125 C-10.853125 10.66425781 -10.1828125 10.00039062 -9.4921875 9.31640625 C-8.79351562 8.63449219 -8.09484375 7.95257813 -7.375 7.25 C-6.31539062 6.20392578 -6.31539062 6.20392578 -5.234375 5.13671875 C-3.49401297 3.41987512 -1.74915019 1.70788168 0 0 Z " fill="#E87109" transform="translate(164,57)"/>
<path d="M0 0 C4.07242926 3.59444461 6.62369219 7.88313306 9.375 12.5 C9.85066406 13.25925781 10.32632813 14.01851562 10.81640625 14.80078125 C11.25597656 15.53683594 11.69554688 16.27289063 12.1484375 17.03125 C12.75437744 18.02995117 12.75437744 18.02995117 13.37255859 19.04882812 C14 21 14 21 13.31054688 23.13012695 C11.2638008 26.05040046 8.26983098 27.21756373 5.125 28.6875 C4.49980469 28.99494141 3.87460938 29.30238281 3.23046875 29.61914062 C-7.94884584 35.01971861 -24.02577672 35.05230111 -35.8125 31.4375 C-43.0933463 28.44639209 -49.27720218 24.29706376 -54 18 C-48.39 12.39 -42.78 6.78 -37 1 C-32 3 -32 3 -29 4.5625 C-23.38888561 7.25115898 -17.50827591 8.09362922 -11.46875 6.2109375 C-7.18985856 4.5623058 -3.5941375 2.88357239 0 0 Z " fill="#F8AA00" transform="translate(75,110)"/>
<path d="M0 0 C1.97265625 1.3671875 1.97265625 1.3671875 4.59765625 3.5546875 C0.81943288 11.48480468 -3.0488305 19.5454485 -8.40234375 26.5546875 C-9.06234375 26.5546875 -9.72234375 26.5546875 -10.40234375 26.5546875 C-10.40234375 25.8946875 -10.40234375 25.2346875 -10.40234375 24.5546875 C-18.29565674 21.13425187 -25.82684303 18.24115313 -34.40234375 20.5546875 C-38.37120711 22.15055913 -41.84808757 24.18518338 -45.40234375 26.5546875 C-51.34234375 20.6146875 -57.28234375 14.6746875 -63.40234375 8.5546875 C-59.05091904 3.11540661 -55.44740982 0.71126707 -49.40234375 -2.4453125 C-48.63535156 -2.86425781 -47.86835937 -3.28320312 -47.078125 -3.71484375 C-32.74498126 -10.24669509 -13.22922439 -7.95904556 0 0 Z " fill="#F8AA00" transform="translate(84.40234375,48.4453125)"/>
</svg>
