<?xml version="1.0" encoding="UTF-8"?>
<svg version="1.1" xmlns="http://www.w3.org/2000/svg" width="450" height="450">
<path d="M0 0 C0.86303238 -0.00701431 1.72606476 -0.01402863 2.61524963 -0.02125549 C5.38417843 -0.03866251 8.1528935 -0.04510744 10.921875 -0.046875 C11.86694916 -0.04754974 12.81202332 -0.04822449 13.78573608 -0.04891968 C27.30627784 -0.03355363 40.41835473 0.29354115 53.671875 3.203125 C54.52362305 3.38004883 55.37537109 3.55697266 56.25292969 3.73925781 C98.42074872 12.59495865 136.55503098 32.3793025 167.671875 62.203125 C168.25727051 62.75597168 168.84266602 63.30881836 169.44580078 63.87841797 C179.31179748 73.230209 187.76543874 83.15380715 195.671875 94.203125 C196.10806152 94.79996094 196.54424805 95.39679688 196.99365234 96.01171875 C221.07975408 129.14067272 236.65041208 172.37146124 236.875 213.53125 C236.88201431 214.39428238 236.88902863 215.25731476 236.89625549 216.14649963 C236.91366251 218.91542843 236.92010744 221.6841435 236.921875 224.453125 C236.92254974 225.39819916 236.92322449 226.34327332 236.92391968 227.31698608 C236.90855363 240.83752784 236.58145885 253.94960473 233.671875 267.203125 C233.49495117 268.05487305 233.31802734 268.90662109 233.13574219 269.78417969 C224.28004135 311.95199872 204.4956975 350.08628098 174.671875 381.203125 C174.11902832 381.78852051 173.56618164 382.37391602 172.99658203 382.97705078 C163.644791 392.84304748 153.72119285 401.29668874 142.671875 409.203125 C142.07503906 409.63931152 141.47820312 410.07549805 140.86328125 410.52490234 C107.73432728 434.61100408 64.50353876 450.18166208 23.34375 450.40625 C22.48071762 450.41326431 21.61768524 450.42027863 20.72850037 450.42750549 C17.95957157 450.44491251 15.1908565 450.45135744 12.421875 450.453125 C11.00426376 450.45413712 11.00426376 450.45413712 9.55801392 450.45516968 C-3.96252784 450.43980363 -17.07460473 450.11270885 -30.328125 447.203125 C-31.17987305 447.02620117 -32.03162109 446.84927734 -32.90917969 446.66699219 C-75.07699872 437.81129135 -113.21128098 418.0269475 -144.328125 388.203125 C-144.91352051 387.65027832 -145.49891602 387.09743164 -146.10205078 386.52783203 C-155.96804748 377.176041 -164.42168874 367.25244285 -172.328125 356.203125 C-172.76431152 355.60628906 -173.20049805 355.00945312 -173.64990234 354.39453125 C-197.73600408 321.26557728 -213.30666208 278.03478876 -213.53125 236.875 C-213.53826431 236.01196762 -213.54527863 235.14893524 -213.55250549 234.25975037 C-213.56991251 231.49082157 -213.57635744 228.7221065 -213.578125 225.953125 C-213.57879974 225.00805084 -213.57947449 224.06297668 -213.58016968 223.08926392 C-213.56480363 209.56872216 -213.23770885 196.45664527 -210.328125 183.203125 C-210.15120117 182.35137695 -209.97427734 181.49962891 -209.79199219 180.62207031 C-200.93629135 138.45425128 -181.1519475 100.31996902 -151.328125 69.203125 C-150.77527832 68.61772949 -150.22243164 68.03233398 -149.65283203 67.42919922 C-140.301041 57.56320252 -130.37744285 49.10956126 -119.328125 41.203125 C-118.43287109 40.54884521 -118.43287109 40.54884521 -117.51953125 39.88134766 C-84.39057728 15.79524592 -41.15978876 0.22458792 0 0 Z " fill="#000000" transform="translate(213.328125,-0.203125)"/>
<path d="M0 0 C0.86303238 -0.00701431 1.72606476 -0.01402863 2.61524963 -0.02125549 C5.38417843 -0.03866251 8.1528935 -0.04510744 10.921875 -0.046875 C11.86694916 -0.04754974 12.81202332 -0.04822449 13.78573608 -0.04891968 C27.30627784 -0.03355363 40.41835473 0.29354115 53.671875 3.203125 C54.52362305 3.38004883 55.37537109 3.55697266 56.25292969 3.73925781 C98.42074872 12.59495865 136.55503098 32.3793025 167.671875 62.203125 C168.25727051 62.75597168 168.84266602 63.30881836 169.44580078 63.87841797 C179.31179748 73.230209 187.76543874 83.15380715 195.671875 94.203125 C196.10806152 94.79996094 196.54424805 95.39679688 196.99365234 96.01171875 C221.07975408 129.14067272 236.65041208 172.37146124 236.875 213.53125 C236.88201431 214.39428238 236.88902863 215.25731476 236.89625549 216.14649963 C236.91366251 218.91542843 236.92010744 221.6841435 236.921875 224.453125 C236.92254974 225.39819916 236.92322449 226.34327332 236.92391968 227.31698608 C236.90855363 240.83752784 236.58145885 253.94960473 233.671875 267.203125 C233.49495117 268.05487305 233.31802734 268.90662109 233.13574219 269.78417969 C224.28004135 311.95199872 204.4956975 350.08628098 174.671875 381.203125 C174.11902832 381.78852051 173.56618164 382.37391602 172.99658203 382.97705078 C163.644791 392.84304748 153.72119285 401.29668874 142.671875 409.203125 C142.07503906 409.63931152 141.47820312 410.07549805 140.86328125 410.52490234 C107.73432728 434.61100408 64.50353876 450.18166208 23.34375 450.40625 C22.48071762 450.41326431 21.61768524 450.42027863 20.72850037 450.42750549 C17.95957157 450.44491251 15.1908565 450.45135744 12.421875 450.453125 C11.00426376 450.45413712 11.00426376 450.45413712 9.55801392 450.45516968 C-3.96252784 450.43980363 -17.07460473 450.11270885 -30.328125 447.203125 C-31.17987305 447.02620117 -32.03162109 446.84927734 -32.90917969 446.66699219 C-75.07699872 437.81129135 -113.21128098 418.0269475 -144.328125 388.203125 C-144.91352051 387.65027832 -145.49891602 387.09743164 -146.10205078 386.52783203 C-155.96804748 377.176041 -164.42168874 367.25244285 -172.328125 356.203125 C-172.76431152 355.60628906 -173.20049805 355.00945312 -173.64990234 354.39453125 C-197.73600408 321.26557728 -213.30666208 278.03478876 -213.53125 236.875 C-213.53826431 236.01196762 -213.54527863 235.14893524 -213.55250549 234.25975037 C-213.56991251 231.49082157 -213.57635744 228.7221065 -213.578125 225.953125 C-213.57879974 225.00805084 -213.57947449 224.06297668 -213.58016968 223.08926392 C-213.56480363 209.56872216 -213.23770885 196.45664527 -210.328125 183.203125 C-210.15120117 182.35137695 -209.97427734 181.49962891 -209.79199219 180.62207031 C-200.93629135 138.45425128 -181.1519475 100.31996902 -151.328125 69.203125 C-150.77527832 68.61772949 -150.22243164 68.03233398 -149.65283203 67.42919922 C-140.301041 57.56320252 -130.37744285 49.10956126 -119.328125 41.203125 C-118.43287109 40.54884521 -118.43287109 40.54884521 -117.51953125 39.88134766 C-84.39057728 15.79524592 -41.15978876 0.22458792 0 0 Z M-1.1484375 30.75 C-1.88900894 31.01433838 -2.62958038 31.27867676 -3.39259338 31.55102539 C-11.61236245 34.56383094 -19.43058684 38.31636203 -27.265625 42.203125 C-28.80073737 42.95769019 -30.33589438 43.71216457 -31.87109375 44.46655273 C-63.09845722 59.87358551 -92.96015292 77.51549552 -122.328125 96.203125 C-122.96234375 96.6043457 -123.5965625 97.00556641 -124.25 97.41894531 C-148.1695753 111.65740381 -148.1695753 111.65740381 -163.234375 133.50390625 C-167.84627993 156.07918087 -168.47004738 179.7193674 -168.53125 202.703125 C-168.53822976 204.33967616 -168.54527071 205.97622706 -168.55236816 207.61277771 C-168.57163042 212.80956358 -168.57654187 218.00630731 -168.578125 223.203125 C-168.57871414 224.08506153 -168.57930328 224.96699806 -168.57991028 225.87565994 C-168.617699 257.28126125 -168.617699 257.28126125 -167.078125 288.640625 C-167.02354126 289.41446533 -166.96895752 290.18830566 -166.91271973 290.9855957 C-165.32710184 312.48096277 -165.32710184 312.48096277 -154.91015625 330.65234375 C-139.53984896 343.07432693 -123.09225117 353.76986219 -106.328125 364.203125 C-105.27222168 364.86473633 -104.21631836 365.52634766 -103.12841797 366.20800781 C-86.35965104 376.69003591 -69.24448509 386.27892337 -51.70114136 395.40115356 C-48.07156529 397.28848599 -44.45568242 399.19789142 -40.85546875 401.140625 C-11.51203323 418.79289 -11.51203323 418.79289 20.74755859 421.59375 C51.77841617 411.02775984 81.41322811 393.58672635 109.671875 377.203125 C110.63222656 376.64850586 111.59257812 376.09388672 112.58203125 375.52246094 C126.02658702 367.72157521 139.09860609 359.41986391 152.046875 350.828125 C152.74697693 350.36576447 153.44707886 349.90340393 154.168396 349.42703247 C174.30409414 337.27325585 174.30409414 337.27325585 187.671875 319.203125 C188.079633 316.93093699 188.41840166 314.64583944 188.70703125 312.35546875 C188.79061386 311.70292618 188.87419647 311.05038361 188.96031189 310.37806702 C189.13561924 308.99926676 189.30772418 307.62005597 189.47680664 306.24047852 C189.73071936 304.17042797 189.99430745 302.10180136 190.25976562 300.03320312 C190.7571582 296.09248102 191.2503819 292.15279452 191.671875 288.203125 C191.76225037 287.40680161 191.85262573 286.61047821 191.94573975 285.7900238 C192.96482206 275.56523507 192.81666181 265.32189174 192.8046875 255.05859375 C192.80536309 253.0009205 192.80633523 250.94324732 192.80758667 248.88557434 C192.80905529 244.58134193 192.80693849 240.27713036 192.80224609 235.97290039 C192.79658906 230.52517856 192.79980747 225.07750645 192.80581856 219.62978649 C192.80948095 215.37829737 192.80825927 211.12681948 192.80569077 206.87532997 C192.805035 204.87080186 192.80580121 202.86627265 192.80817032 200.86174583 C192.81803537 190.15898623 192.67235104 179.48067717 192.21777344 168.78662109 C192.17793901 167.84338077 192.13810459 166.90014044 192.09706306 165.92831707 C191.74730448 158.42210073 190.97104501 151.0665781 189.796875 143.640625 C189.55517578 141.9400293 189.55517578 141.9400293 189.30859375 140.20507812 C187.17749421 126.17120945 179.95758594 119.14371379 168.859375 110.953125 C140.07136627 90.12846165 108.75862365 72.37039085 77.44824219 55.68310547 C74.85556507 54.3010435 72.26735815 52.91093619 69.6796875 51.51953125 C35.89784072 31.2243884 35.89784072 31.2243884 -1.1484375 30.75 Z " fill="#FEFEFE" transform="translate(213.328125,-0.203125)"/>
<path d="M0 0 C5.8439027 3.01326233 10.27011455 6.71039729 15 11.25 C15.67289063 11.88035156 16.34578125 12.51070312 17.0390625 13.16015625 C20.47946217 16.42123007 23.82634958 19.77028144 27.0625 23.234375 C27.65160156 23.86053711 28.24070313 24.48669922 28.84765625 25.13183594 C29.22792969 25.74833008 29.60820312 26.36482422 30 27 C29.67 28.32 29.34 29.64 29 31 C25.04 31 21.08 31 17 31 C17.01160156 31.90347168 17.02320313 32.80694336 17.03515625 33.73779297 C17.16467131 49.44323769 16.57397453 65.13614277 16.07287598 80.83105469 C15.92846208 85.37682666 15.78828762 89.92273125 15.64736938 94.46861267 C15.43475617 101.31251308 15.21689374 108.1562279 15 115 C35.79 115 56.58 115 78 115 C77.835 108.420625 77.67 101.84125 77.5 95.0625 C77.19695216 82.33400956 76.89825067 69.60764712 76.875 56.875 C76.87048828 55.85929932 76.86597656 54.84359863 76.86132812 53.79711914 C76.86326172 52.8921167 76.86519531 51.98711426 76.8671875 51.0546875 C76.86831543 50.28624512 76.86944336 49.51780273 76.87060547 48.72607422 C77 47 77 47 78 46 C80.20650656 45.89987599 82.41622386 45.8691882 84.625 45.8671875 C85.28709473 45.86623077 85.94918945 45.86527405 86.63134766 45.86428833 C88.03352961 45.86360674 89.4357147 45.86545958 90.83789062 45.86962891 C92.99095713 45.87497754 95.14381502 45.8696833 97.296875 45.86328125 C98.65625046 45.86394204 100.0156258 45.86522321 101.375 45.8671875 C103.24285156 45.86887939 103.24285156 45.86887939 105.1484375 45.87060547 C108 46 108 46 109 47 C109.09692063 49.13893267 109.12186803 51.28112967 109.12025452 53.42225647 C109.12153615 54.44034264 109.12153615 54.44034264 109.12284368 55.47899622 C109.12450041 57.76995926 109.118974 60.06085026 109.11352539 62.35180664 C109.11324353 63.98740131 109.11340122 65.6229961 109.1139679 67.2585907 C109.11425593 71.71294586 109.10835824 76.16727434 109.10139394 80.62162328 C109.09516139 85.27146474 109.09455668 89.92130674 109.09336853 94.57115173 C109.09025492 103.38261702 109.08204113 112.19406997 109.07201904 121.00552982 C109.06085882 131.03438108 109.05534768 141.06323291 109.05032361 151.09208882 C109.03985854 171.72806611 109.02225853 192.36403228 109 213 C109.67546875 212.98839844 110.3509375 212.97679687 111.046875 212.96484375 C111.93890625 212.95582031 112.8309375 212.94679688 113.75 212.9375 C114.63171875 212.92589844 115.5134375 212.91429687 116.421875 212.90234375 C118.7818838 212.99173802 120.74498524 213.33087179 123 214 C121.75306388 218.57209911 119.23628461 220.95888137 115.91015625 224.12109375 C114.04833653 225.95245425 112.410982 227.86180977 110.75 229.875 C106.02861941 235.35823973 99.95350745 241.68216418 93 244 C83.05075772 238.81419211 73.95402908 228.65474272 67 220 C66.4225 219.32710937 65.845 218.65421875 65.25 217.9609375 C64.8375 217.31382812 64.425 216.66671875 64 216 C64.33 215.01 64.66 214.02 65 213 C69.29 213 73.58 213 78 213 C78 189.57 78 166.14 78 142 C57.54 142 37.08 142 16 142 C16.36851207 160.99791498 16.36851207 160.99791498 16.74829102 179.99560547 C16.79223957 182.36945859 16.83580458 184.74331885 16.87890625 187.1171875 C16.90561401 188.35927979 16.93232178 189.60137207 16.95983887 190.88110352 C16.99047424 192.64707886 16.99047424 192.64707886 17.02172852 194.44873047 C17.04171402 195.47465302 17.06169952 196.50057556 17.08229065 197.55758667 C17 200 17 200 16 202 C5.77 202 -4.46 202 -15 202 C-16.45031905 199.0993619 -16.12265571 196.58520318 -16.12025452 193.34359741 C-16.12110894 192.65176821 -16.12196337 191.95993901 -16.12284368 191.2471453 C-16.12449709 188.91783003 -16.11897939 186.58858602 -16.11352539 184.25927734 C-16.11324346 182.5939789 -16.11340136 180.92868033 -16.1139679 179.26338196 C-16.11425565 174.73264233 -16.10836243 170.201929 -16.10139394 165.67119551 C-16.09515679 160.93994752 -16.09455631 156.20869898 -16.09336853 151.47744751 C-16.09025628 142.51372696 -16.08204432 133.55001855 -16.07201904 124.58630335 C-16.0608546 114.38330886 -16.05534662 104.18031379 -16.05032361 93.97731471 C-16.03986163 72.98486968 -16.02226424 51.99243561 -16 31 C-16.77085937 31.01160156 -17.54171875 31.02320313 -18.3359375 31.03515625 C-19.84027344 31.04869141 -19.84027344 31.04869141 -21.375 31.0625 C-22.37273437 31.07410156 -23.37046875 31.08570313 -24.3984375 31.09765625 C-27 31 -27 31 -29 30 C-27.69638532 21.66820186 -17.67065386 14.61248028 -11.75 9.0625 C-10.86501831 8.22924194 -10.86501831 8.22924194 -9.9621582 7.37915039 C-6.82028881 4.48056833 -3.78960547 2.04439243 0 0 Z " fill="#FCFCFC" transform="translate(179,103)"/>
</svg>
