<svg xmlns="http://www.w3.org/2000/svg" version="1.1" viewBox="0 0 637.2 600" style="max-height: 500px" width="637.2" height="600">
<path transform="translate(349,3)" fill="#FEFEFE" d="M0 0 C1.10569336 0.20399414 2.21138672 0.40798828 3.35058594 0.61816406 C53.69233682 10.137785 100.05921398 30.85976304 140 63 C141.02609375 63.81984375 142.0521875 64.6396875 143.109375 65.484375 C151.11838579 72.04459885 158.47834331 79.26865698 165.8125 86.5625 C166.30055115 87.04528412 166.78860229 87.52806824 167.29144287 88.02548218 C173.98848372 94.66657578 180.17751 101.57537245 186 109 C186.54342041 109.68940674 187.08684082 110.37881348 187.64672852 111.08911133 C218.83236528 151.11835885 239.51223471 197.97233545 248 248 C248.22647217 249.25272705 248.22647217 249.25272705 248.45751953 250.53076172 C253.77146373 280.94119749 253.72141576 315.65915882 248 346 C247.79600586 347.10569336 247.59201172 348.21138672 247.38183594 349.35058594 C237.862215 399.69233682 217.14023696 446.05921398 185 486 C184.18015625 487.02609375 183.3603125 488.0521875 182.515625 489.109375 C175.95540115 497.11838579 168.73134302 504.47834331 161.4375 511.8125 C160.95471588 512.30055115 160.47193176 512.78860229 159.97451782 513.29144287 C153.33342422 519.98848372 146.42462755 526.17751 139 532 C138.31059326 532.54342041 137.62118652 533.08684082 136.91088867 533.64672852 C96.88164115 564.83236528 50.02766455 585.51223471 0 594 C-1.25272705 594.22647217 -1.25272705 594.22647217 -2.53076172 594.45751953 C-32.94119749 599.77146373 -67.65915882 599.72141576 -98 594 C-99.65854004 593.69400879 -99.65854004 593.69400879 -101.35058594 593.38183594 C-151.69233682 583.862215 -198.05921398 563.14023696 -238 531 C-239.53914063 529.77023437 -239.53914063 529.77023437 -241.109375 528.515625 C-249.11838579 521.95540115 -256.47834331 514.73134302 -263.8125 507.4375 C-264.30055115 506.95471588 -264.78860229 506.47193176 -265.29144287 505.97451782 C-271.98848372 499.33342422 -278.17751 492.42462755 -284 485 C-284.54342041 484.31059326 -285.08684082 483.62118652 -285.64672852 482.91088867 C-316.83236528 442.88164115 -337.51223471 396.02766455 -346 346 C-346.22647217 344.74727295 -346.22647217 344.74727295 -346.45751953 343.46923828 C-351.77146373 313.05880251 -351.72141576 278.34084118 -346 248 C-345.79600586 246.89430664 -345.59201172 245.78861328 -345.38183594 244.64941406 C-335.862215 194.30766318 -315.14023696 147.94078602 -283 108 C-282.18015625 106.97390625 -281.3603125 105.9478125 -280.515625 104.890625 C-273.95540115 96.88161421 -266.73134302 89.52165669 -259.4375 82.1875 C-258.71332382 81.45542328 -258.71332382 81.45542328 -257.97451782 80.70855713 C-251.33342422 74.01151628 -244.42462755 67.82249 -237 62 C-236.31059326 61.45657959 -235.62118652 60.91315918 -234.91088867 60.35327148 C-194.88164115 29.16763472 -148.02766455 8.48776529 -98 0 C-96.74727295 -0.22647217 -96.74727295 -0.22647217 -95.46923828 -0.45751953 C-65.05880251 -5.77146373 -30.34084118 -5.72141576 0 0 Z"/>
<path transform="translate(358,34)" fill="#010101" d="M0 0 C7.12239932 4.07722322 11.9772385 10.03160496 14.6328125 17.8671875 C16.49192742 28.66587627 15.38357318 37.92172175 9 47 C6.9184577 49.37567328 4.78136392 51.55169236 2.44140625 53.671875 C-0.27497315 56.2622144 -2.68002693 59.02989948 -5.13256836 61.86767578 C-8.1842722 65.35225956 -11.37580065 68.70175053 -14.5625 72.0625 C-15.95982227 73.54279239 -17.35695353 75.02326511 -18.75390625 76.50390625 C-19.45531738 77.24656738 -20.15672852 77.98922852 -20.87939453 78.75439453 C-24.25768731 82.33182223 -27.63247844 85.91243036 -31 89.5 C-31.60529541 90.14074463 -32.21059082 90.78148926 -32.83422852 91.44165039 C-35.66877105 93.87438354 -35.66877105 93.87438354 -37 97 C-36.14019531 97.17015625 -35.28039062 97.3403125 -34.39453125 97.515625 C-8.67601607 102.78834131 11.92251714 113.17832518 32 130 C34.59693169 132.13391829 37.20393443 134.2553272 39.8125 136.375 C40.83549194 137.20753296 40.83549194 137.20753296 41.87915039 138.05688477 C46.27819863 141.62841501 50.71738995 145.14301954 55.1875 148.625 C60.27355768 152.58870134 65.21633658 156.68989892 70.11499023 160.88208008 C73.92031831 164.12403831 77.80536632 167.24208848 81.75 170.3125 C83.52001144 171.6982723 85.28873589 173.08566215 87.05664062 174.47412109 C88.42900476 175.55166831 89.80284582 176.62733581 91.17773438 177.70166016 C93.46288577 179.49594534 95.73244307 181.30855051 98 183.125 C98.70608398 183.67454346 99.41216797 184.22408691 100.13964844 184.7902832 C106.69114558 190.08506135 112.10735549 196.61343153 114 205 C115.00475698 214.51875037 114.35304004 221.9782432 109 230 C108.443125 230.9075 107.88625 231.815 107.3125 232.75 C100.16390042 239.70539418 91.85969864 242.8919332 82.0625 243.375 C68.87499135 243.01314763 58.52907748 232.41880674 49.0390625 224.27246094 C45.18638688 220.97242321 41.25565051 217.7995867 37.25 214.6875 C31.18091151 209.96918237 25.24526516 205.10338796 19.32617188 200.19873047 C14.29152556 196.03704527 9.18986029 191.9757747 4.02514648 187.97705078 C0.64258137 185.34266032 -2.61778882 182.61170318 -5.83496094 179.77832031 C-16.66154647 170.29763573 -27.87522051 163.37725903 -42 160 C-42.77988281 159.77699219 -43.55976563 159.55398437 -44.36328125 159.32421875 C-63.92911594 154.35672704 -85.16557583 158.83444751 -102.28710938 168.91015625 C-106.72516659 171.73391443 -110.33776272 175.25765128 -114 179 C-115.08140991 180.06185823 -116.16487419 181.12162689 -117.25 182.1796875 C-122.53223568 187.35957469 -127.66895086 192.60039042 -132.4609375 198.2421875 C-134.57683339 200.65881986 -136.86631442 202.87825843 -139.15795898 205.12670898 C-140.93431913 206.93320486 -142.59483168 208.79398787 -144.24609375 210.71484375 C-147.91403503 214.93292779 -151.71661251 219.00692347 -155.5625 223.0625 C-156.97812478 224.56095214 -158.39348445 226.05965478 -159.80859375 227.55859375 C-160.51226074 228.30351074 -161.21592773 229.04842773 -161.94091797 229.81591797 C-165.01356944 233.07509986 -168.07074451 236.34858528 -171.125 239.625 C-171.9766272 240.5385022 -171.9766272 240.5385022 -172.84545898 241.47045898 C-173.98819236 242.69638296 -175.13085213 243.92237557 -176.2734375 245.1484375 C-178.62960276 247.67518486 -180.98882376 250.1990679 -183.34863281 252.72241211 C-184.52696713 253.98447359 -185.7034213 255.24829326 -186.87792969 256.51391602 C-189.64097496 259.49007265 -192.42031975 262.44207065 -195.265625 265.33984375 C-208.22804102 278.67376202 -215.60905471 292.63998741 -215.5625 311.625 C-215.55887451 313.18661865 -215.55887451 313.18661865 -215.55517578 314.77978516 C-215.32775061 324.44015225 -213.12382112 332.32378512 -209 341 C-208.55527344 341.93714844 -208.11054688 342.87429688 -207.65234375 343.83984375 C-201.44676749 355.29211714 -190.5309944 364.63727301 -181.35571289 373.7746582 C-179.79910611 375.32584727 -178.24799829 376.88239392 -176.69726562 378.43945312 C-175.68000831 379.45605028 -174.66244117 380.47233754 -173.64453125 381.48828125 C-172.75096924 382.38071533 -171.85740723 383.27314941 -170.93676758 384.19262695 C-168.80652542 386.27237653 -166.59538527 388.2241122 -164.3347168 390.16088867 C-159.50394137 394.35472242 -155.01097349 398.87566902 -150.50927734 403.41555786 C-148.9630726 404.97473727 -147.41358104 406.53058621 -145.86328125 408.08569336 C-142.01655775 411.94565803 -138.17535284 415.81109902 -134.33398438 419.6763916 C-131.07574304 422.95449442 -127.8153701 426.23044992 -124.55224609 429.50369263 C-123.03923948 431.02309466 -121.5293203 432.54551703 -120.01953125 434.06811523 C-115.35163148 438.76044724 -110.63719118 443.33470516 -105.59063721 447.62171936 C-103.50111497 449.43228184 -101.63178964 451.41419366 -99.75 453.4375 C-86.81384732 466.48497929 -69.90565961 473.17964822 -51.625 473.4375 C-35.53169777 473.30227732 -20.0559474 467.56440368 -7.86816406 457.04833984 C-7.31097813 456.57156988 -6.75379219 456.09479992 -6.17972183 455.60358238 C-0.48616363 450.66369174 4.8291872 445.37288024 10.09998322 439.98921585 C11.81991249 438.23365019 13.54756298 436.48599937 15.27728271 434.74008179 C20.18367731 429.78548199 25.078009 424.81908797 29.96386719 419.84423828 C32.97876559 416.77550119 36.0035661 413.71680943 39.03447723 410.66389084 C40.17528264 409.51077516 41.31229488 408.35389256 42.44519806 407.19301224 C57.77791437 391.4843794 57.77791437 391.4843794 68.58300781 391.25415039 C69.31874023 391.27340576 70.05447266 391.29266113 70.8125 391.3125 C71.59077148 391.32466553 72.36904297 391.33683105 73.17089844 391.34936523 C81.98075803 391.73600199 89.43491782 394.84452785 95.5 401.375 C101.73994848 409.65811745 103.89377841 417.69007717 103 428 C99.82448912 440.68389774 89.93315505 449.36884333 80.98828125 458.27734375 C79.81222403 459.4547517 78.63646354 460.6324561 77.46098328 461.81044006 C75.0039973 464.27036157 72.54346568 466.7266644 70.08032227 469.18041992 C66.95156618 472.29782046 63.83182717 475.42406539 60.71474934 478.55313778 C58.28946491 480.98571587 55.85935459 483.41342846 53.42784691 485.83978462 C52.27715203 486.98916168 51.12789521 488.13998059 49.98021889 489.29237175 C22.25214826 517.10929586 -10.22644021 536.30049161 -50.375 536.375 C-59.39276611 536.26741417 -68.16949617 535.94656342 -77 534 C-77.71140137 533.84402344 -78.42280273 533.68804688 -79.15576172 533.52734375 C-93.92785023 530.19876966 -107.24817597 525.13830324 -120.1875 517.25 C-120.78006592 516.89268799 -121.37263184 516.53537598 -121.9831543 516.16723633 C-134.5252904 508.18649223 -144.96136806 497.29258665 -155.3125 486.75 C-157.13796852 484.89660427 -158.96504229 483.04486015 -160.79521179 481.19610596 C-161.91908449 480.06028662 -163.04028716 478.92181525 -164.15803528 477.77996826 C-166.94717279 474.95566661 -169.80099628 472.27480242 -172.8112793 469.68652344 C-177.59390072 465.5485269 -182.02101127 461.08593376 -186.46875 456.59375 C-187.34849487 455.71021851 -188.22823975 454.82668701 -189.13464355 453.91638184 C-192.39656945 450.6402768 -195.65392564 447.3596502 -198.91094971 444.07867432 C-202.1148726 440.85169462 -205.32269116 437.6286192 -208.53125 434.40625 C-209.36168823 433.56751343 -210.19212646 432.72877686 -211.04772949 431.86462402 C-215.31986213 427.57472784 -219.66595492 423.45424617 -224.25683594 419.50717163 C-237.01610507 408.47527344 -248.64421685 396.03962372 -258 382 C-258.65871094 381.02546875 -259.31742188 380.0509375 -259.99609375 379.046875 C-268.29282732 365.81644909 -273.69199736 350.19940162 -277 335 C-277.22429687 334.00871094 -277.44859375 333.01742188 -277.6796875 331.99609375 C-280.68049104 316.23159846 -280.02728886 299.47879718 -276 284 C-275.61714844 282.22882813 -275.61714844 282.22882813 -275.2265625 280.421875 C-270.38044285 259.52576277 -259.22589311 242.16650366 -244.6328125 226.77734375 C-242.3102439 224.32727509 -240.05244367 221.83775969 -237.8125 219.3125 C-232.35564604 213.23200559 -226.72842821 207.31229904 -221.12109375 201.37109375 C-217.35918643 197.38464731 -213.61286918 193.38398251 -209.875 189.375 C-209.30563721 188.76438721 -208.73627441 188.15377441 -208.1496582 187.5246582 C-207.00559926 186.29745403 -205.86163723 185.07015951 -204.71777344 183.84277344 C-201.81340761 180.72706092 -198.90653827 177.61368576 -196 174.5 C-195.42378906 173.88253906 -194.84757812 173.26507813 -194.25390625 172.62890625 C-191.31361431 169.47812362 -188.37244639 166.32816629 -185.4296875 163.1796875 C-179.95692884 157.32282296 -174.49238477 151.45915794 -169.0625 145.5625 C-163.34265787 139.35227623 -157.56783836 133.19441125 -151.7890625 127.0390625 C-148.18518309 123.19970756 -144.59117133 119.35123919 -141 115.5 C-136.17456287 110.32590018 -131.34054795 105.15996547 -126.5 100 C-119.89972048 92.96373246 -113.31391643 85.91408923 -106.73388672 78.85888672 C-103.82336349 75.73853697 -100.91161713 72.61932898 -98 69.5 C-96.83332754 68.25000541 -95.66666087 67.00000541 -94.5 65.75 C-77 47 -77 47 -59.5 28.25 C-58.6335083 27.32078735 -58.6335083 27.32078735 -57.74951172 26.37280273 C-56.58669839 25.12804401 -55.4216691 23.88535154 -54.25439453 22.64477539 C-51.25688095 19.45326562 -48.31076042 16.23085662 -45.4296875 12.93359375 C-32.92133875 -1.24436329 -18.5524078 -10.18313979 0 0 Z"/>
<path transform="translate(283.68927001953125,317.85955810546875)" fill="#020202" d="M0 0 C0.95785455 -0.00297112 1.91570911 -0.00594224 2.90258956 -0.0090034 C6.10277291 -0.0176546 9.30291869 -0.01919561 12.50311279 -0.02069092 C14.80153991 -0.02532158 17.09996626 -0.03034657 19.39839172 -0.03573608 C25.63611988 -0.04883709 31.87383728 -0.05530041 38.11157703 -0.05974674 C42.01082567 -0.06268083 45.91007138 -0.06678624 49.80931854 -0.07125092 C60.61831173 -0.08335435 71.42730169 -0.09373853 82.23630142 -0.09712601 C82.92717704 -0.09734557 83.61805265 -0.09756514 84.32986389 -0.09779136 C85.02232992 -0.09800964 85.71479594 -0.09822791 86.42824578 -0.09845281 C87.8312939 -0.09889626 89.23434202 -0.09934283 90.63739014 -0.09979248 C91.68131596 -0.10012463 91.68131596 -0.10012463 92.74633119 -0.10046348 C104.01934023 -0.10441025 115.2922846 -0.12186334 126.56526867 -0.145152 C138.15608427 -0.16890285 149.74686425 -0.18107187 161.33770442 -0.18249393 C167.83871239 -0.18354096 174.33962901 -0.18942749 180.84061432 -0.20731354 C186.95721134 -0.22381535 193.07364855 -0.22593936 199.19025993 -0.21717453 C201.43032955 -0.21640533 203.67040784 -0.2207314 205.9104557 -0.23063278 C233.32525631 -0.3446684 233.32525631 -0.3446684 243.30291748 8.11309814 C249.81317402 14.68668403 253.30879278 21.64370123 253.68572998 30.89044189 C253.50226343 40.15550277 249.91865691 48.57478316 243.31072998 55.14044189 C234.74430921 61.51215982 226.96974907 63.44394539 216.50756836 63.40786743 C215.53746315 63.41239854 214.56735794 63.41692966 213.5678556 63.42159808 C210.32617377 63.43423026 207.08466021 63.43262245 203.84295654 63.43096924 C201.51497177 63.43695524 199.18698897 63.44376095 196.85900879 63.45132446 C190.54069378 63.46898487 184.22243295 63.47367988 177.90409565 63.47495604 C173.95458984 63.47637823 170.00509779 63.48064914 166.0555954 63.48595047 C152.98233555 63.50349677 139.90910978 63.5127907 126.83583811 63.51128952 C126.13178094 63.51120961 125.42772378 63.5111297 124.70233154 63.51104736 C123.99740915 63.5109656 123.29248676 63.51088384 122.56620309 63.5107996 C111.14767035 63.50998708 99.72926964 63.52911822 88.31077507 63.5573241 C76.57079212 63.58609397 64.83087348 63.59986212 53.09085441 63.59813654 C46.50598727 63.59762716 39.92126956 63.60329761 33.33643341 63.62449265 C27.14099662 63.64388998 20.94585158 63.64398894 14.75040436 63.62945938 C12.48130872 63.62737203 10.21219476 63.63206769 7.94313049 63.6441803 C-18.93004765 63.77829986 -18.93004765 63.77829986 -29.74395752 53.42950439 C-36.23723956 45.78881509 -38.19775979 37.46563042 -38.08770752 27.65997314 C-37.03616373 18.37133631 -31.98617926 11.444347 -24.85333252 5.69512939 C-17.06260717 0.0981823 -9.25652373 -0.00904771 0 0 Z"/>
</svg>